<svg width="599" height="150" viewBox="0 0 599 150" xmlns="http://www.w3.org/2000/svg"><title>cucumber</title><g fill="none" fill-rule="evenodd"><path d="M524.712 87.002c-7.06 0-11.53 3.54-14.824 8.966 0-1.416.706-3.067.706-4.247v-2.36H498.83v58.988h11.764v-33.976c0-9.674 5.176-15.573 14.118-15.573h2.353V87h-2.353zM46.353 108.71c-3.294-5.192-8-8.73-14.823-8.73-10.824 0-18.59 8.257-18.59 18.64 0 10.38 7.766 18.64 18.59 18.64 6.823 0 11.53-3.304 14.823-8.495l10.824 6.37c-5.176 8.023-14.824 13.92-25.647 13.92-20 0-31.53-15.1-31.53-30.2s11.765-30.2 31.53-30.2c12.235 0 20 5.897 25.647 13.92l-10.824 6.134zM67.53 90.07h12.236v32.088c0 8.494 6.117 14.393 13.882 14.393 7.53 0 13.883-6.134 13.883-14.392v-32.09h12.236v33.034c0 16.044-12.47 25.718-26.118 25.718-13.647 0-26.118-9.674-26.118-25.718V90.07zM177.178 108.71c-3.294-5.192-8-8.73-14.823-8.73-10.824 0-18.59 8.257-18.59 18.64 0 10.38 7.766 18.64 18.59 18.64 6.823 0 11.53-3.304 14.823-8.495l10.824 6.37c-5.176 8.023-14.824 13.92-25.647 13.92-20 0-31.53-15.1-31.53-30.2s11.53-30.2 31.53-30.2c12.235 0 20 5.897 25.647 13.92l-10.824 6.134zM198.355 90.07h12.236v32.088c0 8.494 6.118 14.393 13.883 14.393 7.53 0 13.883-6.134 13.883-14.392v-32.09h12.235v33.034c0 16.044-12.47 25.718-26.117 25.718s-26.118-9.674-26.118-25.718V90.07zM265.885 111.54c0-14.628 9.647-22.886 20.942-22.886 8.706 0 14.823 4.247 17.176 10.145h.236c2.352-6.135 8.47-10.146 17.175-10.146 11.295 0 20.942 8.494 20.942 22.886v35.865H330.12V111.54c0-6.842-4.234-10.853-9.41-10.853-5.883 0-10.118 3.54-10.118 12.505v33.977h-12.236V113.19c0-8.966-4.235-12.505-10.117-12.505-5.178 0-9.413 4.01-9.413 10.853v35.63h-12.942v-35.63zM357.416 73.08h12.235V97.15h.236c2.824-4.72 10.59-8.494 18.59-8.494 14.823 0 29.646 11.09 29.646 30.2 0 19.113-14.823 30.202-29.647 30.202-8 0-15.765-3.775-18.59-8.494h-.234v7.08h-12.234V73.08zm29.882 27.135c-10.117 0-17.647 8.022-17.647 18.64s7.53 18.64 17.648 18.64c10.354 0 17.883-8.022 17.883-18.64 0-10.854-7.528-18.64-17.882-18.64zM484.005 134.9c-6.823 8.73-16.235 13.92-26.588 13.92-20 0-31.53-15.1-31.53-30.2 0-15.102 11.765-29.966 31.53-29.966 11.765 0 29.647 9.91 29.647 32.088v2.124H439.77c.706 8.73 8.94 15.1 17.412 15.1 6.588 0 12.235-3.303 16.47-8.965l10.353 5.9zm-11.294-22.18c-2.587-8.73-8.94-13.45-16.94-13.45-7.765 0-14.118 4.956-16.236 13.45h33.177z" fill="#000"/><path d="M560.458.927c-21.295 0-38.53 17.282-38.53 38.637 0 18.8 13.44 34.423 31.177 37.9v11.06c23.06-3.487 43.477-21.843 45-45.937.918-14.503-6.293-29.31-18.455-36.498-.697-.413-1.404-.822-2.133-1.18-.742-.368-1.505-.725-2.28-1.033-.245-.104-.486-.197-.734-.295-.677-.25-1.36-.533-2.06-.738-3.77-1.246-7.8-1.917-11.985-1.917z" fill="#00A818"/><path d="M568.4 15.232c-1.32-.136-2.706.324-3.677 1.474-.706.944-1.147 1.858-1.618 2.802-1.41 3.303-.94 6.843 1.177 9.438 3.294-.708 6.088-2.817 7.5-6.12.47-.944.735-2.153.735-3.097.147-2.508-1.92-4.273-4.118-4.498zm-17.133.22c-2.15.206-4.19 1.918-4.19 4.277 0 .943.263 2.152.734 3.096 1.413 3.303 4.428 5.412 7.722 6.12 1.882-2.595 2.367-6.135.956-9.438-.47-.944-.912-1.873-1.618-2.58-.97-1.15-2.314-1.598-3.603-1.475zM539.723 26.81c-3.71.19-5.368 4.866-2.28 7.3.94.707 1.853 1.223 2.794 1.695 3.295 1.416 7.103.93 9.927-.958-.706-3.068-3.103-5.884-6.397-7.3-1.177-.472-2.133-.737-3.31-.737-.264-.03-.487-.013-.734 0zm36.25 14.304c-2.155-.04-4.338.59-6.103 1.77.706 3.067 3.103 5.884 6.397 7.3 1.177.47 2.133.737 3.31.737 4.234.235 6.308-5.015 3.014-7.375-.94-.708-1.852-1.15-2.793-1.622-1.236-.53-2.53-.786-3.824-.81zm-32.133.22c-1.293.026-2.588.28-3.823.812-1.177.472-2.088.988-2.794 1.696-3.06 2.596-1 7.536 3.235 7.3 1.176 0 2.368-.266 3.31-.737 3.293-1.416 5.63-4.233 6.102-7.3-1.765-1.18-3.874-1.81-6.03-1.77zm11.912 7.227c-3.294.707-6.088 2.816-7.5 6.12-.47.943-.735 2.078-.735 3.022-.235 4.01 5.22 6.164 7.574 3.097.706-.945 1.148-1.86 1.618-2.803 1.412-3.067.927-6.606-.956-9.438zm8.75.22c-1.882 2.596-2.367 6.135-.955 9.438.47.944.91 1.873 1.617 2.58 2.588 2.832 8.03.738 7.794-2.8 0-.945-.264-2.154-.735-3.098-1.412-3.303-4.426-5.412-7.72-6.12z" fill="#FFF"/></g></svg>