<svg xmlns="http://www.w3.org/2000/svg" width="320" height="250" viewBox="0 0 320 250"><ellipse fill="#4B191E" cx="273.806" cy="204.888" rx="43.084" ry="9.231"/><g fill="#E8AD21"><path d="M247.76 41.193h31.927v14.244H247.76z"/><path d="M281.896 45c0 .95-.73 1.72-1.632 1.72H246.69c-.9 0-1.632-.77-1.632-1.72s.73-1.72 1.63-1.72h33.576c.902 0 1.632.77 1.632 1.72z"/></g><path fill="#F5E5C4" d="M281.65 43.65s-3.962 2.27-18.167 2.27c-14.77 0-18.18-2.27-18.18-2.27V29.405h36.347V43.65z"/><path fill="#BF3B41" d="M299.824 152.2L282.14 49.543s-8.145 2.272-18.088 2.272c-16.476 0-18.748-2.272-18.748-2.272L224.828 152.2l3.698 46.18c-.048.227-.077.454-.077.684 0 5.805 14.922 10.51 33.33 10.51s33.33-4.705 33.33-10.51c0-.25-.036-.495-.09-.74l4.804-46.124z"/><path fill="#FFF5E9" d="M263.842 152.2h36.55l-4.804 46.123c.055.245.09.49.09.74 0 5.805-14.92 10.51-33.33 10.51"/><ellipse fill="#E8AD21" cx="263.675" cy="29.661" rx="17.976" ry="2.462"/><path fill="#F5E5C4" d="M269.37 30.142H257.34l2.947-16.208h6.14"/><path fill="#FFF5E9" d="M264.052 51.815s-7.168-.157-9.942-.33c-3.835-.235-8.854-1.845-8.854-1.845l-20.028 101.415 38.614 1.52.21-100.76z"/><g fill-rule="evenodd" clip-rule="evenodd"><path fill="#BF3B41" d="M251.478 111.542h26.635l6.397 6.396-20.042 20.448-19.485-20.99 6.495-5.854"/><path fill="#FBB450" d="M252.498 114.684l-3.407 3.358 2.138 2.315c-.437-1.982.484-4.425 2.947-5.563l-1.677-.11zM260.925 130.492l3.752 3.657 3.337-3.422c-1.99.75-4.474.41-7.09-.236zM257.748 127.136l-2.247-2.317c2.9.59 6.29.825 10.273.637 6.534.37 7 2.858.868 3.128-1.484-.054-2.963-.27-4.447-.638-.65-1.99-2.883-2.088-4.445-.81zM278.003 118.624h-5.37v-.93c-2.336-2.31-6.832-3.62-11.416-2.434-3.606 1.352-3.692 3.884.348 4.576 2.594.368 5.415.348 8.476-.055 2.962-.506 5.577.543 6.118 2.43l4.33-4.46-2.43-2.083-.055 2.957z"/><path fill="#FFF100" d="M273.383 114.795h.666c-.147.215-.244.466-.32.7-.062-.264-.182-.5-.347-.7z"/></g><ellipse fill="#4B191E" cx="131.218" cy="210.38" rx="89.199" ry="11.998"/><path fill="#FFF" d="M215.298 200.52c0 4.94-41.463 12.69-61.107 12.69-.58 0-1.163 1.642-1.746 1.655-7.927.19-33.93.294-42.438.294-8.413 0-36.74-.103-44.582-.288-.677-.018-1.353-1.664-2.027-1.664-19.12 0-58.684-7.75-58.684-12.69 0-5.857 47.14-10.607 105.293-10.607 58.15 0 105.292 4.75 105.292 10.61z"/><g><path fill="none" stroke="#FBB450" stroke-width="7" stroke-linecap="round" stroke-linejoin="round" stroke-miterlimit="10" d="M179.13 148.06h8.328l5.757 12.603M45.032 148.06h-8.328l-5.756 12.603"/><path fill="#FBB450" d="M187.458 193.594c0 3.5-2.837 6.34-6.34 6.34H42.735c-3.5 0-6.34-2.84-6.34-6.34v-13.288c0-3.5 2.84-6.34 6.34-6.34H181.12c3.5 0 6.338 2.84 6.338 6.34v13.288z"/><path fill="#AB7648" d="M191.155 161.516c0 6.148-4.983 11.132-11.132 11.132H43.425c-6.147 0-11.13-4.983-11.13-11.132v-.746c0-6.146 4.982-11.13 11.13-11.13h136.6c6.147 0 11.13 4.983 11.13 11.13v.746z"/><path fill="#75A040" d="M39.565 141.46h145.252v3.695H39.565z"/><path fill="#FBB450" d="M39.302 146.21h145.25v3.7H39.303z"/><path fill="#F1634D" d="M39.565 136.705h145.252v3.696H39.565z"/><path fill="#FBB450" d="M134.058 148.7l-22.097 11.963L89.865 148.7M183.19 133.965c.44-.627.61-1.162.543-2.178-1.942-29.663-35.575-53.225-72.22-53.225-36.095 0-70.962 22.86-73.696 51.896-.138 1.45.223 2.333.585 3.122.484 1.056 2.2 1.276 2.2 1.276h140.85s.982.2 1.74-.89z"/><g fill="#FFF5E9"><circle cx="44.433" cy="130.01" r="1.498"/><circle cx="63.386" cy="130.01" r="1.498"/><circle cx="82.339" cy="130.01" r="1.498"/><circle cx="101.292" cy="130.01" r="1.498"/><circle cx="120.244" cy="130.01" r="1.498"/><circle cx="139.196" cy="130.01" r="1.498"/><circle cx="158.149" cy="130.01" r="1.498"/><circle cx="177.101" cy="130.01" r="1.498"/></g><g fill="#FFF5E9"><circle cx="63.3" cy="106.188" r="1.498"/><circle cx="82.253" cy="106.188" r="1.498"/><circle cx="101.205" cy="106.188" r="1.498"/><circle cx="120.157" cy="106.188" r="1.498"/><circle cx="139.11" cy="106.188" r="1.498"/><circle cx="158.063" cy="106.188" r="1.498"/></g><g fill="#FFF5E9"><circle cx="74.36" cy="94.637" r="1.498"/><circle cx="93.313" cy="94.637" r="1.498"/><circle cx="112.266" cy="94.637" r="1.498"/><circle cx="131.218" cy="94.637" r="1.498"/><circle cx="150.171" cy="94.637" r="1.498"/></g><g fill="#FFF5E9"><circle cx="101.205" cy="82.174" r="1.498"/><circle cx="120.157" cy="82.174" r="1.498"/></g><circle fill="#FFF5E9" cx="53.823" cy="118.277" r="1.498"/><circle fill="#FFF5E9" cx="72.774" cy="118.277" r="1.498"/><path fill="#FFF5E9" d="M93.227 118.277c0 .828-.67 1.498-1.5 1.498-.826 0-1.495-.67-1.495-1.498 0-.827.67-1.498 1.496-1.498.83 0 1.5.67 1.5 1.497z"/><circle fill="#FFF5E9" cx="110.681" cy="118.277" r="1.498"/><circle fill="#FFF5E9" cx="129.633" cy="118.277" r="1.498"/><circle fill="#FFF5E9" cx="148.585" cy="118.277" r="1.498"/><circle fill="#FFF5E9" cx="167.539" cy="118.277" r="1.498"/></g></svg>