<svg xmlns="http://www.w3.org/2000/svg" width="320" height="250" viewBox="0 0 320 250"><ellipse fill-rule="evenodd" clip-rule="evenodd" fill="#1A3219" cx="127.323" cy="228.432" rx="49.845" ry="19.505"/><path fill-rule="evenodd" clip-rule="evenodd" fill="#336732" d="M161.043 182.783c0 29.258-23.718 52.978-52.98 52.978-6.725 0-13.16-1.253-19.08-3.54-19.83-7.66-33.897-26.904-33.897-49.437 0-32.78 19.37-55.423 34.685-68.204 10.014-8.356 18.293-12.497 18.293-12.497s52.98 28.954 52.98 80.7z"/><path fill-rule="evenodd" clip-rule="evenodd" fill="#FFF5E9" d="M89.772 114.58c10.013-8.356 18.292-12.497 18.292-12.497s52.98 28.954 52.98 80.7c0 29.258-23.72 52.978-52.98 52.978-6.726 0-13.16-1.253-19.082-3.54"/><path fill-rule="evenodd" clip-rule="evenodd" fill="#46873F" d="M161.043 191.934c0 29.26-23.718 52.978-52.98 52.978-29.257 0-52.977-23.72-52.977-52.978 0-54.21 52.978-80.7 52.978-80.7s52.98 28.954 52.98 80.7z"/><path fill-rule="evenodd" clip-rule="evenodd" fill="#FFF5E9" d="M89.37 242.397c-20.37-7.382-34.924-26.902-34.924-49.822 0-33.242 19.92-56.06 35.332-68.74"/><path fill-rule="evenodd" clip-rule="evenodd" fill="#336732" d="M117.305 146.348s-2.925-5.908-8.862-9.396c-3.75-2.202-9.618-2.162-9.618-2.162V43.483h18.48v102.865z"/><path fill="#336732" d="M96.487 2.063h15.79l8.596 29.438s2.363 12.68-5.587 12.465c-7.95-.216-17.724 0-17.724 0s-6.017-3.87-2.363-13.107c3.65-9.24 3.978-12.68 2.902-16.33-1.072-3.654-2.594-4.15-2.594-8.26 0-3.143.98-4.205.98-4.205z"/><g fill-rule="evenodd" clip-rule="evenodd" fill="#80BB5D"><circle cx="100.732" cy="10.077" r="1.407"/><circle cx="105.299" cy="16.433" r="1.407"/><circle cx="109.868" cy="22.788" r="1.407"/><circle cx="114.436" cy="29.144" r="1.407"/></g><path clip-rule="evenodd" fill="none" stroke="#80BB5D" stroke-width="2" stroke-miterlimit="10" d="M91.34 198.303h31.997V208H91.34z"/><path fill-rule="evenodd" clip-rule="evenodd" fill="#336732" d="M94.393 201.27h25.896v3.848H94.392z"/><g clip-rule="evenodd" fill="none" stroke-miterlimit="10"><circle stroke="#336732" cx="107.314" cy="169.243" r="18.139"/><circle stroke="#336732" cx="107.315" cy="169.243" r="14.949"/><circle stroke="#80BB5D" cx="107.314" cy="169.243" r="11.707"/></g><g clip-rule="evenodd" fill="none" stroke="#46873F" stroke-miterlimit="10"><path d="M98.825 44.506h18.48M98.825 54.86h18.48M98.825 65.216h18.48M98.825 75.57h18.48M98.825 85.926h18.48M98.825 96.28h18.48M98.825 106.634h18.48M98.825 116.99h18.48M98.825 127.345h18.48M98.825 137.7h18.48"/></g><g clip-rule="evenodd" fill="none" stroke="#80BB5D" stroke-miterlimit="10"><path d="M114.435 29.145v175.84M109.94 23.364v181.62M105.445 17.584v187.723M100.95 11.806v193.822"/></g><path fill-rule="evenodd" clip-rule="evenodd" fill="#336732" d="M218.355 55.825c-26.066 0-47.2 15.997-47.2 35.73 0 7.58 3.13 14.604 8.45 20.387l-8.45 11.52 19.41-3.033c7.798 4.307 17.4 6.855 27.79 6.855 26.066 0 47.2-15.998 47.2-35.73s-21.133-35.73-47.2-35.73z"/><g fill-rule="evenodd" clip-rule="evenodd"><path fill="#336732" d="M221.645 142.215c23.893 0 43.262 14.663 43.262 32.75 0 6.95-2.867 13.387-7.742 18.688l6.617 12.163-16.666-4.386c-7.146 3.95-15.947 6.285-25.47 6.285-23.896 0-43.265-14.663-43.265-32.75s19.37-32.75 43.265-32.75z"/><path fill="#46873F" d="M220.52 143.82c23.895 0 43.262 14.663 43.262 32.75 0 6.95-2.867 13.387-7.742 18.688l7.742 10.558-17.79-2.78c-7.145 3.95-15.946 6.285-25.472 6.285-23.893 0-43.262-14.662-43.262-32.75s19.37-32.75 43.262-32.75z"/></g><path fill-rule="evenodd" clip-rule="evenodd" fill="#46873F" d="M216.428 58.715c-26.066 0-47.197 15.998-47.197 35.73 0 7.58 3.128 14.604 8.448 20.387l-8.447 11.52 19.41-3.033c7.798 4.307 17.397 6.855 27.788 6.855 26.068 0 47.2-15.998 47.2-35.73s-21.132-35.73-47.2-35.73z"/><path fill="#FFF5E9" d="M201.018 160.148c-3.148 2.282-4.262-.247-8.32 2.116l1.81 5.18 3.546 10.166c-1.068-.46-2.414-.447-3.72.153-2.347 1.084-3.66 3.657-2.93 5.748.73 2.093 3.226 2.91 5.575 1.826 2.35-1.084 3.66-3.657 2.93-5.747l-4.33-12.416c-1.137-3.635 4.12-1.802 5.438-7.026z"/><path fill="#46873F" d="M85.152 8.635c-3.148 2.283-4.26-.247-8.32 2.117l1.81 5.18L82.186 26.1c-1.067-.462-2.413-.448-3.716.152-2.348 1.083-3.66 3.657-2.93 5.75.728 2.09 3.226 2.906 5.574 1.823s3.66-3.656 2.932-5.747l-4.33-12.414c-1.138-3.637 4.12-1.803 5.436-7.027zM137.47 42.214c-3.146 2.283-4.258-.247-8.318 2.117l1.81 5.182 3.545 10.165c-1.067-.462-2.413-.448-3.716.152-2.348 1.082-3.66 3.656-2.93 5.748s3.225 2.907 5.574 1.825c2.35-1.085 3.66-3.657 2.932-5.75l-4.33-12.412c-1.138-3.636 4.12-1.802 5.435-7.026z"/><path fill="#FFF5E9" d="M247.03 161.986c-2.833 2.054-3.83-.222-7.483 1.904l1.627 4.66 3.19 9.144c-.962-.415-2.173-.402-3.345.14-2.114.973-3.296 3.288-2.638 5.17.656 1.88 2.9 2.615 5.014 1.64 2.113-.975 3.293-3.29 2.64-5.17l-3.896-11.166c-1.023-3.27 3.706-1.62 4.89-6.322zM228.127 185.036l-5.352-15.31-11.28 8.86 4.36 12.583c-1.008-.438-2.28-.425-3.512.144-2.22 1.024-3.46 3.456-2.77 5.432.69 1.977 3.05 2.748 5.268 1.724 2.22-1.022 3.46-3.454 2.77-5.433l-3.94-11.295 9.578-7.52 3.125 8.945c-1.01-.436-2.28-.42-3.512.146-2.22 1.023-3.462 3.455-2.77 5.43.69 1.978 3.047 2.75 5.266 1.727 2.218-1.027 3.46-3.457 2.77-5.434z"/><path fill="#46873F" d="M88.344 77.67l-5.35-15.31-11.28 8.858 4.36 12.583c-1.008-.435-2.28-.42-3.512.147-2.22 1.023-3.46 3.456-2.77 5.43.69 1.98 3.047 2.75 5.266 1.726 2.22-1.022 3.46-3.455 2.77-5.43l-3.94-11.298 9.58-7.522L86.59 75.8c-1.01-.437-2.28-.422-3.513.145-2.22 1.023-3.46 3.455-2.77 5.433.69 1.975 3.045 2.748 5.266 1.724 2.22-1.026 3.46-3.456 2.77-5.433z"/><g fill="#FFF5E9"><path d="M187.018 84.797h.393c.25 0 .56 1.23.933 3.693l.154.435 1.242-.113c1.765 0 2.647.217 2.647.65l-.154.22-.082-.105-.384.218-.082-.113h-.072l-.31.113v-.113l-.083.113h-.23v-.113l-2.184.217c.47 1.275.703 2.148.703 2.617-.214.365-.478.583-.786.65-.787 0-1.746-.506-2.877-1.52-.277-.366-.432-.656-.467-.87 0-.537.7-1.082 2.102-1.634v-.218c-.414-1.572-.62-2.697-.62-3.374v-.537l.156-.216zm-.24 6.302v.112c.65.435 1.118.65 1.407.65h.156c-.26-1.088-.47-1.634-.62-1.634h-.156l-.477.217c0 .222-.1.44-.308.654zM193.71 88.117h.384l.383.426v.206c-.38 1.344-.568 2.22-.568 2.627l.278.735h.29c1.02 0 1.53-1.19 1.53-3.57l.383-.32h.093c.346 0 .602.21.768.63v1.895l.095 1.79-.57.518-.766-.207c-.396.345-.808.517-1.243.517-1.338 0-2.006-.77-2.006-2.308v-.207c0-1.083.316-1.994.95-2.733zM199.867 87.55c.746.088 1.117.28 1.117.578-.744 2.317-1.117 4.995-1.117 8.03-.256.62-.658 1.065-1.21 1.335h-.403c-1.152-.16-1.73-.604-1.73-1.336v-.08l.208-.168 1.014.66h.207c.56 0 .893-1.68 1.004-5.038 0-.91.303-2.238.91-3.983zm.403-2.98h.61l.405.412v.248l.104.91-.302.332c-.586 0-.992-.497-1.22-1.49.13-.248.265-.385.402-.413zM203.426 81.9c.38 0 .717.33 1.014.992v.28c-1.082.965-1.658 3.13-1.727 6.497v.98l.207.292c1.37-1.794 2.252-2.69 2.637-2.69 1.125 0 2.244 1.603 3.354 4.812.423.67 1.064 1.138 1.927 1.406v.135l-.715.714h-.404c-.98 0-2.127-1.694-3.445-5.08l-.508-.29c-.24 0-1.086.99-2.535 2.97l-.516.145c-.875-.497-1.314-1.77-1.314-3.82.316-3.358.824-5.806 1.52-7.345h.506z"/><path d="M212.21 88.045h.425c.406 0 .725.21.95.632v.538c0 .317-.315.945-.95 1.884 0 .42-.107.63-.32.63h-.322l-.63-.54v-.09c0-.244.317-.87.952-1.885v-.094c-1.2.85-1.8 1.66-1.8 2.434v.083c0 .323.14.534.423.63h.424c.463 0 1.842-.3 4.14-.9h.208v.188c-1.03.868-2.336 1.406-3.922 1.613h-.746c-1.2-.124-1.8-.635-1.8-1.53v-.353c0-1 .813-2.05 2.44-3.146l.53-.095zM225.87 81.144h.185c.984 0 1.746 1.59 2.275 4.77 0 3.525-1.42 5.91-4.262 7.15l-.953.104c-1.076-.18-1.613-.782-1.613-1.81v-.23c0-1.18.79-2.16 2.37-2.948h.476l.475.57v.454c-1.393.58-2.09 1.297-2.09 2.152v.23l.29.34h.372c1.035 0 2.21-1.135 3.518-3.404.25-.84.373-1.673.373-2.494 0-1.925-.537-3.172-1.613-3.745l-.094-.455c.082-.456.178-.684.29-.684zM231.703 88.045h.424c.408 0 .725.21.953.632v.538c0 .317-.318.945-.953 1.884 0 .42-.105.63-.32.63h-.32l-.63-.54v-.09c0-.244.317-.87.95-1.885v-.094c-1.2.85-1.8 1.66-1.8 2.434v.083c0 .323.142.534.423.63h.426c.46 0 1.842-.3 4.14-.9h.206v.188c-1.027.868-2.334 1.406-3.922 1.613h-.744c-1.2-.124-1.803-.635-1.803-1.53v-.353c0-1 .814-2.05 2.443-3.146l.527-.095z"/><path d="M236.34 83.327c.406 0 .754.318 1.043.95 0 .802-.277 1.674-.838 2.62-.414 1.91-.62 3.18-.62 3.808l.104.6h.1c.532 0 2.298-1.587 5.3-4.76l.516-.125.207.363c0 .628-.588 1.5-1.768 2.618l-1.14 1.43c0 .868.278 1.302.83 1.302h.413c.357 0 1.12-.316 2.285-.95l.207.36v.24c-.316.84-.97 1.433-1.965 1.778l-.527.113c-1.146 0-1.94-.55-2.38-1.655h-.208c-.752.635-1.342.952-1.77.952-.965 0-1.447-.793-1.447-2.38 0-1.448.482-3.83 1.447-7.14l.105-.124h.105z"/><path d="M247.64 87.808l.65.248c.034.6-.136 1.396-.507 2.39l-.094.715c.013.684.315 1.28.91 1.79l.052.528c-.25.034-.453.052-.61.052-.42 0-.923-.42-1.5-1.263l-.167-.755-.04-.26-.085.012c-1.33 1.24-2.334 1.887-3.01 1.935-.4-.05-.652-.18-.756-.395l-.072-.486c.45-2.92 2.192-4.424 5.227-4.512zm-3.872 4.014l.486-.362c1.566-1.22 2.453-2.11 2.66-2.67h-.084c-1.785.614-2.807 1.625-3.062 3.032zM187.57 98.245h.393c.248 0 .56 1.23.932 3.694l.154.434 1.243-.113c1.764 0 2.648.218 2.648.652l-.155.218-.082-.104-.383.217-.082-.113h-.072l-.313.113v-.113l-.082.113h-.228v-.113l-2.182.217c.467 1.275.703 2.148.703 2.618-.215.366-.477.583-.787.652-.785 0-1.744-.508-2.875-1.522-.276-.364-.43-.654-.466-.868 0-.538.7-1.084 2.1-1.635v-.218c-.414-1.572-.62-2.697-.62-3.373v-.537l.156-.218zm-.238 6.303v.113c.648.435 1.117.653 1.408.653h.154c-.262-1.09-.47-1.636-.62-1.636h-.155l-.478.218c0 .22-.103.44-.31.653zM195.156 101.536c2.42.58 3.63 1.745 3.63 3.497-1.028 1.057-1.917 1.584-2.67 1.584-1.005 0-1.79-.643-2.35-1.926-.19 0-.333-.522-.423-1.57 0-1.056.604-1.584 1.813-1.584zm-.53 1.666l.468 1.417-.498-.828c.42 1.055.896 1.683 1.428 1.884 1.035-.415 1.553-.814 1.553-1.2-.125-.89-.85-1.476-2.174-1.76-.516-.042-.776.12-.776.486zM206.525 101.68c.357 0 .635.194.828.58l-.104.353.206.238-.414 2.09.207.59h.308c1.58-.606 2.37-1.46 2.37-2.565l.52-.703h.413l.415.466v.59c0 .58-.277 1.59-.828 3.03l-.207.23.104.34-.725 1.987.103.114v.112l-.62 1.52c-.345.587-.67.646-.974.177l-.105-.983.23-1.025.847-2.597h-.104l-1.334.237c0 .152.102.23.31.23l.104.112v.113h-.207l-.517-.34h-.62l-.83-1.046-.206-1.395c.276-1.637.553-2.454.828-2.454zM215 101.495h.424c.406 0 .725.21.95.63v.54c0 .316-.315.944-.95 1.883 0 .42-.107.63-.32.63h-.322l-.63-.537v-.092c0-.242.317-.87.952-1.883v-.094c-1.2.85-1.8 1.66-1.8 2.432v.084c0 .324.14.534.423.63h.424c.464 0 1.843-.3 4.142-.898h.207v.185c-1.03.87-2.337 1.408-3.925 1.615h-.744c-1.2-.124-1.8-.636-1.8-1.53v-.354c0-1 .814-2.05 2.443-3.146l.527-.093zM225.998 100.998c.744.09 1.117.283 1.117.58-.744 2.317-1.117 4.993-1.117 8.028-.256.622-.658 1.065-1.21 1.335h-.403c-1.154-.157-1.73-.603-1.73-1.334v-.083l.208-.165 1.014.662h.205c.56 0 .895-1.68 1.006-5.04 0-.91.303-2.237.91-3.982zm.404-2.98h.61l.403.415v.248l.102.91-.3.332c-.585 0-.993-.496-1.22-1.49.132-.248.267-.387.405-.413zM232.123 101.257l.652.248c.033.6-.135 1.396-.508 2.39l-.094.715c.014.683.318 1.28.91 1.79l.053.527c-.248.035-.45.052-.61.052-.42 0-.92-.42-1.5-1.263l-.165-.756-.04-.257-.084.01c-1.332 1.242-2.334 1.887-3.012 1.935-.398-.048-.65-.18-.756-.393l-.07-.487c.448-2.917 2.19-4.42 5.225-4.51zm-3.87 4.014l.485-.36c1.566-1.222 2.453-2.11 2.66-2.67h-.082c-1.787.614-2.808 1.624-3.064 3.03zM233.777 101.36h.354c.358.297.538.607.538.93l-.094.415.094 1.852h.092c.7-1.647 1.322-2.472 1.875-2.472.434 0 .848.962 1.24 2.887.275.62.604.93.984.93l.36-.103.352.31v.414c0 .234-.328.403-.982.508h-.352c-.428-.22-.814-.632-1.16-1.232-.207-.393-.416-1.078-.63-2.06-.09 0-.298.377-.62 1.13-.713 1.164-1.246 1.748-1.605 1.748-.428 0-.666-.618-.713-1.853v-3.095l.267-.31z"/><path d="M244.238 101.257l.652.248c.033.6-.135 1.396-.508 2.39l-.092.715c.012.683.316 1.28.91 1.79l.05.527c-.247.035-.45.052-.608.052-.422 0-.922-.42-1.5-1.263l-.168-.756-.04-.257-.083.01c-1.33 1.242-2.333 1.887-3.01 1.935-.4-.048-.65-.18-.757-.393l-.07-.487c.448-2.917 2.19-4.42 5.225-4.51zm-3.87 4.014l.487-.36c1.564-1.222 2.45-2.11 2.658-2.67h-.082c-1.785.614-2.807 1.624-3.063 3.03zM246.607 104.96c.648.077.973.37.973.88-.188.442-.36.7-.527.777h-.445c-.447-.338-.672-.742-.672-1.21 0-.298.224-.446.67-.446zM249.66 104.96c.648.077.973.37.973.88-.186.442-.36.7-.527.777h-.445c-.448-.338-.67-.742-.67-1.21-.002-.298.22-.446.67-.446zM252.71 104.96c.65.077.974.37.974.88-.186.442-.36.7-.527.777h-.445c-.447-.338-.672-.742-.672-1.21 0-.298.224-.446.67-.446z"/></g></svg>