<svg xmlns="http://www.w3.org/2000/svg" width="332" height="250" viewBox="-6.5 0 332 250"><path fill-rule="evenodd" clip-rule="evenodd" fill="#5B3A15" d="M132.187 222.99l-88.882-12.134 14.113-17.863 89.728 10.666"/><path fill="#C38C65" d="M128.764 212.978L58.9 207.612l18.53-20.386 69.863 5.367"/><path fill="#C3782A" d="M130.185 215.51l-69.862-5.366 18.528-20.387 69.864 5.367"/><path fill="#C38C65" d="M43.952 202.433l71.07 5.46-.65 8.43-71.068-5.458z"/><path fill="#FFF" d="M113.815 207.79l-69.862-5.365 18.528-20.387 69.863 5.367"/><g fill-rule="evenodd" clip-rule="evenodd"><path fill="#C3782A" d="M87.263 198.994c.525.125 1.052.248 1.593.374-.373.138-.71.263-1.052.392-.025-.01-.047-.02-.07-.028.236-.096.472-.192.805-.33-.43-.01-.772-.03-1.12-.026-1.307.013-2.622.04-3.93.056-.32.002-.532.066-.702.18-.44.294-.89.586-1.326.884-.66.45-1.4.896-1.946 1.37-.686.593-1.658 1.116-2.518 1.673l1.153.372c-.687.27-1.36.52-2.003.785-.294.122-.527.27-.787.404l-.174-.01c.05-.035.08-.076.147-.104.56-.218.387-.47.482-.705.014-.035-.16-.087-.278-.103-.435-.06-.875-.116-1.328-.156-.167-.014-.41-.004-.56.04-.86.245-1.706.502-2.555.758-.232-.018-.465-.032-.698-.048-.668-.192-1.35-.38-2.005-.583-.692-.212-2.104-.102-2.785.23l-.174-.012c.218-.13.2-.24.04-.35-.207-.146-.39-.3-.585-.452l-.438-.344c.047.18.053.377.27.494.344.184.453.39.453.63-.236-.017-.466-.036-.7-.055-.036-.503-.66-.863-1.203-1.246-.035.01-.07.02-.104.025.26.28.525.556.787.835-.418-.202-.746-.43-1.075-.653l-1.003-.677-.17.038c0 .083-.05.175 0 .25.105.167.27.324.4.485.194.246.465.48.276.776-.23-.02-.464-.037-.697-.055-.15-.193-.247-.398-.468-.566-.392-.3-.854-.576-1.307-.856-.066-.04-.248-.04-.375-.062-.044.062-.143.134-.127.19.03.095.126.182.2.275.255.304.516.605.77.91-.172-.015-.347-.028-.522-.044-.462-.424-.922-.85-1.407-1.297-.19.206-.21.366-.066.535.173.21.23.445.34.666l-1.573-.134c.024-.334.023-.666.072-1.003.036-.244.15-.495.198-.743.016-.087-.067-.172-.105-.26l-.167.015-.145.195c-.058.082-.102.167-.18.245-.377.382-1.07.438-1.785.17-.514-.2-.954-.44-1.428-.657.635.418 1.348.802 2.034 1.19.406.235.9.45.898.795l-2.27-.2c-.06-.075-.08-.165-.186-.22-.6-.303-1.23-.594-1.834-.9-.194-.1-.415-.104-.69-.053-.308.058-.635.102-.92.182-.133.034-.244.138-.27.213-.047.136-.025.277-.032.415-.118-.013-.235-.023-.353-.033.46-.354.137-.565-.886-.592.15.183.3.365.45.55-1.167-.114-2.33-.23-3.497-.34.382-.537.767-1.072 1.15-1.605.27.238.543.473.814.71.662.575 2.354.72 3.68.325-1.814-.83-2.53-1.063-4.253-1.37 6.49-6.82 10.174-11.942 16.418-18.64 10.145 1.538 19.463.615 29.583 2-.017.492-1.196 2.37-1.1 2.855.092.465.396.914.6 1.357-.153-.113-.327-.247-.503-.378l-.187.015c-.038.104-.152.22-.1.314.203.37.458.736.7 1.103.033.047.117.086.14.134.028.05.063.137.005.154-.108.032-.3.045-.427.03-.744-.087-1.428-.236-1.426-.63 0-.138-.036-.276-.05-.415-.012-.135-.018-.272-.027-.45-.462.582-.527 1.12-.238 1.65.16.29.568.496 1.156.662.55.153 1.042.344 1.537.524.09.034.068.113.1.17-.142.017-.284.032-.488.054.542.252 1.09.504 1.635.758.09.04.162.088.243.13-.16.035-.316.09-.474.097-1.56.057-3.104.168-4.547.482-.962.21-1.875.465-2.79.716-.164.043-.234.153-.347.233.023.02.048.037.07.055.552-.09 1.103-.182 1.655-.267.43-.065.867-.118 1.29-.194.547-.097 1.082-.212 1.624-.32.325-.063.646-.138.98-.185.37-.052.806-.027.994-.24.04-.05.36-.1.536-.097.543.006 1.076.038 1.61.06 0 .017-.004.037-.005.053-.23.02-.48.024-.687.067-.166.036-.28.118-.418.18.18.006.36.015.54.015.07 0 .144-.023.274-.046-.176.164-.426.224-.785.22-.15-.003-.314-.02-.452 0-.623.088-1.23.2-1.857.277-.315.04-.657.033-.986.04-.226.007-.45.004-.696.03.337.168.603.33.517.608-.09-.09-.136-.138-.185-.185-.275-.268-1.112-.294-1.546-.027-.305.188-.538.41-.63.624-.152.365-.4.714-.978 1.024-.558.303-.48.626-.528.94-.03.184.033.376.18.54.23.254.23.505.087.78-.06.118-.017.285.16.344.16.057.562-.002.822-.01-.045.11-.183.276-.164.43.024.175.373.214 1.018.147-.262.132-.824.22-.383.406-.047.006-.098.01-.146.014-.26-.194-.496-.398-.79-.582-.19-.117-.413-.238-.71-.3-.52-.115-.954-.255-1.23-.47-.392-.3-.95-.52-1.778-.625-.243-.03-.45-.1-.768-.125.423.292.854.58 1.26.874.576.415 1.335.756 2.17 1.07.073.026.114.063.168.096-.082.01-.236.018-.24.027-.053.114-.086.23-.126.36.49-.003.94-.005 1.488-.005-.372-.108-.655-.2-.94-.29zm-6.59 1.767c-.13-.027-.23-.062-.35-.077-1.752-.256-3.55-.44-5.588-.245-.545.053-1.02-.056-1.172-.26-.104-.137-.27-.222-.606-.25-.217-.017-.44-.04-.63-.08-.316-.07-.585-.048-.868.072-.228.1-.427.088-.645.016-1.356-.473-2.74-.938-4.086-1.43-.44-.16-.77-.376-1.183-.554-1.017-.436-2.085-.854-3.074-1.31-.674-.314-1.447-.4-2.432-.25-.778.115-1.318.494-1.2.846.11.327.043.646-.178.986-.24.37-.405.76-.396 1.132.01.313-.055.595-.352.894-.335.34-.608.69-.907 1.033.22-.017.33-.056.45-.09.898-.258 1.84-.413 2.8-.287 1.106.14 2.187.25 3.436.06.58-.09.955.133.665.376-.196.164-.54.32-.888.436-.31.107-.715.153-1.117.23.093.022.158.042.233.053 2.072.262 4.13.526 6.217.753 1.36.144 2.774.23 4.15.354 1.157.105 2.3.228 3.446.342.208.02.388.036.56-.072.555-.35 1.18-.682 1.664-1.038.723-.53 1.35-1.077 2.048-1.64zm-13.326-4.68c.025-.022.054-.042.083-.064-.684-.39-1.638-.594-2.832-.663l.2-.112c-.86-.26-1.688-.52-2.54-.766-.493-.142-1.082-.15-1.73-.132.294.078.538.145.78.21l-.08.09c-1.145-.08-2.304-.134-3.322-.358.707.323 1.453.633 2.133.97 1.048.517 1.988 1.077 3.085 1.56 2.08.906 4.224 1.763 6.368 2.602.436.172.987.292 1.523.407.295.063.522-.02.558-.18.05-.233-.29-.412-.822-.446-.257-.016-.498-.057-.662-.075.394-.09.834-.168 1.218-.286.69-.212 1.306-.484 2.025-.663.84-.206.803-.477.247-.676-.59-.213-1.182-.436-2.03-.484-.12-.01-.232-.052-.318-.09-.72-.324-1.72-.466-2.662-.636-.542-.096-1.193-.097-1.935-.15.33-.03.52-.042.712-.058zm1.06-2.89c0 .02.002.036.004.054-.52.012-1.045.04-1.562.03-1.22-.03-2.27-.262-3.348-.467-.446-.083-.932-.148-1.42-.174-.212-.01-.477.097-.717.15.15.074.29.153.453.22.153.06.325.116.506.162.306.076.613.19.944.2.608.014 1.236-.04 1.774-.06.13.09.226.23.446.293.41.128.868.235 1.352.3.975.13 1.97.244 2.98.328.888.07 1.804.1 2.716.124.338.012.73-.01.92-.193.198-.19.29-.386-.005-.546-.24-.13-.533-.245-.83-.354-.372-.135-.803-.244-1.146-.392-.594-.26-1.25-.48-2.05-.608-1.456-.236-2.846-.59-4.565-.432-.05.006-.118-.023-.16-.017-.25.048-.58.076-.718.16-.152.093-.238.266-.147.357.124.117.416.22.697.274 1.25.245 2.325.666 3.874.59zm-3.348-2.05c1.747-.132 3.448-.297 5.154-.38 1.685-.08 3.378-.085 5.05-.12-.497-.06-.99-.124-1.488-.18-.81-.085-1.62-.177-2.44-.25-1.41-.128-2.817.024-4.222.137-.834.066-1.667.135-2.503.203 2.828-1.076 5.96-1.833 9.545-2.16-1.152-.014-2.307-.025-3.395.19-1.26.252-2.516.516-3.716.824-1.893.49-3.824.937-5.868 1.28-1.37.228-2.708.492-3.875.947 1.038-.2 2.046-.365 3.15-.318.637.027 1.295 0 1.937.017 1.195.023 2.39.05 3.576.1.534.02 1.048.102 1.57.153.016-.02.032-.042.05-.06-.29-.048-.577-.096-.91-.147.12-.047.21-.085.302-.12-.003-.025-.008-.048-.01-.073-.626-.01-1.252-.03-1.906-.043zm-.54-1.492c1.013-.223 2.05-.395 2.954-.66 1.756-.512 3.698-.733 5.682-.876 1.467-.104 2.962-.11 4.446-.15.724-.018 1.448-.02 2.174-.03l.04-.052c-1.89-.272-3.78-.547-5.675-.823-.106-.02-.248-.015-.364 0-.923.106-1.83.05-2.742.002-.818-.043-1.637-.09-2.457-.13-.266-.012-.538-.01-.804-.016-.46-.01-.95-.074-1.372-.02-1.068.142-2.118.32-3.15.513-.47.09-.894.233-1.318.365-.707.217-1.402.45-2.1.678l.092.06c.05-.017.097-.04.15-.05 1.48-.35 2.915-.756 4.56-.905 2.21-.2 4.44-.226 6.668-.184.307.006.62.072.887.14.28.072.276.177-.08.23-.25.038-.513.067-.772.08-1.91.095-3.558.465-4.99 1.04-.605.245-1.18.507-1.827.788zm21.198 7.645c.292-.035.53-.06.77-.087.146-.016.29-.027.435-.04-.024-.06-.026-.12-.077-.168-.24-.245-.51-.48-.737-.727-.62-.668-.07-1.316.865-1.95.17-.112.388-.193.747-.213.22-.01.455-.092.65-.156.09-.028.168-.107.138-.145-.036-.037-.21-.077-.316-.067-.456.035-.91.085-1.362.136-.388.045-.78.145-1.157.146-2.15.027-3.496 1.132-3.116 1.738.3.477 1.11.806 1.94 1.118.41.153.852.293 1.218.417zm-1.27.383c-.252-.146-.45-.342-.813-.45-.405-.117-.97-.148-1.45-.23-.292-.05-.6-.104-.82-.194-.27-.106-.426-.057-.618.057-.226.13-.42.28-.695.392-.634.26-1.303.506-1.966.75-.493.186-.477.387.087.458.518.067 1.062.108 1.602.148.853.064 1.656-.02 2.432-.268.7-.225 1.437-.43 2.24-.664zm2.074 1.646c.018-.1.02-.17.045-.235.083-.215-.065-.372-.435-.507-.416-.154-.762-.344-1.11-.528-.41-.215-.515-.23-1.188-.075-.228.052-.437.12-.65.182-.664.198-1.322.397-1.985.596-.135.042-.345.064-.4.113-.17.145-.28.3-.416.455.554.07.97.267 1.707.16 1.132-.16 2.268-.21 3.39-.175.326.01.656.01 1.042.012zm-17.893 3.694c-.13.205-.238.407-.395.61-.13.17-.044.278.24.367.525.162 1.058.32 1.54.5.582.222 1.198.246 1.96-.01.246-.085.537-.14.78-.227.292-.104.594-.212.82-.337.354-.195.296-.506-.068-.533-1.617-.122-3.24-.244-4.878-.37zm1.696-11.835c-.238-.046-.435-.12-.647-.126-.357 0-.723.036-1.084.06-.29.02-.58.04-.872.062l.015.06c.115-.017.228-.027.242-.03-.032.104-.097.203-.084.298.025.172.365.203.667.25 2.02.308 4.032.614 6.047.913.608.086 1.192.216 1.827.25.574.027 1.203-.02 1.795-.078.315-.032.626-.146.89-.244.083-.028.066-.162-.022-.2-.073-.032-.328-.012-.477.014-.186.036-.334.107-.514.15-.37.088-.97.047-1.036-.1-.115-.258-.553-.276-1.016-.314-.295-.026-.464-.1-.378-.256.027-.05-.08-.152-.172-.16-.185-.018-.495-.022-.59.025-.28.146-.443.322-.215.498.09.07.205.132.31.196-.048.012-.09.024-.135.037-.292-.14-.615-.27-.87-.422-.444-.27-1.07-.327-1.812-.26-.298.026-.59.078-1.006.135l.584-.168c-.518-.053-1.01-.09-1.483-.146-.394-.053-.442-.152-.197-.31.052-.034.11-.064.23-.135zm13.136 5.824c.036-.01.07-.02.108-.027-.23-.172-.46-.342-.682-.513-.706-.548-.78-1.134.033-1.756.283-.216.606-.427.93-.65l-.772.153c.01-.296.55-.434.908-.63-.36.017-.726.03-1.042.093-1.036.208-1.832.557-2.54.93-.445.235-.28.603.202.764.186.06.362.152.415.248.335.63 1.29 1.043 2.442 1.39zm-3.077 1.81c-.482-.04-.96-.065-1.405-.12-.992-.133-1.904-.006-2.82.27-.436.13-.93.22-1.39.338-.1.023-.208.073-.233.113-.1.157-.164.313-.244.47.06.01.102.023.143.022 1.41-.06 2.82-.124 4.233-.193.138-.007.29-.058.42-.098.683-.204 1.013-.49 1.295-.803zm2.335.665c-3.07.372-5.994.365-8.963.567.21.102.43.206.71.236.41.04.864.028 1.3.038.73.02 1.49.004 2.195.056.9.065 1.756.19 2.64.274.138.014.415-.005.472-.04.544-.357 1.05-.718 1.646-1.13zm-16.943 4.688c.646-.093 1.27-.172 1.883-.273.128-.02.296-.102.328-.158.115-.218.203-.438.262-.657.015-.05-.107-.124-.216-.144-.962-.137-2.01-.143-3.066-.124-.126.002-.26.03-.446.056.217.497.857.864 1.255 1.3zm10.318-6.815c-.62-.51-.9-1.034-.907-1.607-.004-.184-.252-.31-.6-.346-.41-.042-.554.143-.732.272-.112.08-.22.195-.387.225-.394.072-.376.2-.462.328-.26.393-.02.62.898.73.768.09 1.463.26 2.19.398zm-7.912-3.012c.168.272.555.413 1.02.462.71.073 1.288.225 1.86.394.848.246 1.727.212 2.51-.133.267-.116.52-.143.82-.16.112-.01.222-.01.33-.016.016-.02.03-.04.05-.063-.273-.05-.53-.127-.82-.144-1.673-.108-3.354-.207-5.032-.31-.215-.013-.435-.018-.737-.03zm1.252.988c-1.362-.47-2.685-.877-4.417-1.11.125.25.292.45.317.66.038.28.364.405.877.55 1.067.295 2.062.082 3.223-.1zm16.678-4.607c-1.36-.174-2.698-.303-4.155-.255.662.35 1.27.702 2.214.902.158.033.42.054.564.02.618-.146 1.174-.326 1.377-.666zm.46.084c-.474.213-.9.41-1.34.6-.3.135-.287.177.105.243 1.074.184 2.243.135 3.415.127-.184-.406-1.193-.838-2.18-.97zm-13.998 5.81c.135-.287-.083-.523-.59-.632-.654-.14-1.3-.29-1.955-.436-.153-.033-.342-.077-.497-.062-.57.06-1.135.14-1.82.228 1.705.32 3.29.616 4.862.903zm1.58 6.82c-.228.338-.185.338.335.472.965.243 2.018.145 3.13-.062-.894-.384-2.324-.234-3.465-.41zm6.95-13.548c.53.09.94.218.874.463.715.032 1.378.06 2.036.094.656.038 1.308.085 2.002.134-1.392-.52-3.152-.598-4.914-.692zm-3.4 7.362l.104-.027c-.04-.343-.04-.69-.134-1.027-.055-.205-.137-.444-.432-.577-.395-.177-1.008-.264-1.526-.392.043.062.114.107.206.147.63.258.9.593 1.082.96.156.317.46.615.698.918zM65.1 195.203l.167-.042c-.16-.292-.313-.587-.483-.88-.02-.033-.163-.074-.232-.067-.414.044-.855.075-1.23.167-.372.088-.33.237.018.323.318.08.637.163.947.25.274.08.54.167.812.25zm9.04 3.9c-.686.19-1.365.383-2.16.606.45.062.75.107 1.046.152.863.12.922.107 1.177-.287.096-.152.257-.312-.063-.473zm3.44-.773c-1.05.237-2.098.477-3.14.713.122.22.166.225.587.113.725-.2 1.445-.4 2.184-.584.39-.096.44-.198.367-.242zm2.823-1.465c.135-.077.255-.146.318-.18-.222-.247-.417-.466-.616-.69-.322.113-.433.117-.61 0-.25-.164-.466-.337-.723-.524.3.538.823.995 1.63 1.395zm-6.394-3.053c-.23.296-.11.49.207.52.29.02.736-.12.864-.274.167-.2-.003-.436-.37-.42-.274.01-.548.134-.7.174zm2.048 10.323l-.03.49c.577-.216 1.108-.413 1.64-.61l-.01-.036c-.523.05-1.04.098-1.6.155zm.157-9.84c-.73.622-.73.622-.393.76.74-.22.867-.446.393-.76zm-1.215.502c.047 0 .09.006.137.008.778-.407.877-.74.128-.853l-.265.845zm2.014-.23c-.21.165-.426.322-.608.484-.055.054-.013.118-.02.18.138-.013.304-.01.408-.044.713-.234.748-.373.22-.62zm3.964 5.01c-.732-.15-1.085-.126-1.718.126.616-.046 1.107-.08 1.718-.126z"/><path fill="#FFF" d="M47.44 200.757c1.723.31 2.438.54 4.253 1.37-1.326.396-3.018.25-3.68-.324-.27-.237-.544-.472-.815-.71.08-.113.16-.224.242-.336zM71.096 204.816c.85-.256 1.694-.513 2.555-.76.15-.042.394-.052.56-.037.453.04.893.097 1.328.155.12.016.292.067.278.104-.095.235.077.486-.482.704-.066.028-.098.07-.147.105-1.365-.09-2.728-.18-4.09-.274zM50.335 203.112c.007-.138-.015-.28.03-.415.028-.075.14-.18.27-.213.287-.08.614-.124.923-.182.274-.052.495-.048.69.054.603.306 1.232.597 1.833.9.108.054.127.144.186.218-1.31-.117-2.62-.24-3.93-.362zM56.537 203.676c0-.346-.492-.56-.897-.796-.686-.388-1.4-.77-2.034-1.19.474.22.914.46 1.428.657.714.27 1.408.213 1.785-.17.077-.077.12-.162.18-.244l.145-.195.167-.015c.038.088.12.173.105.26-.046.248-.162.5-.2.743-.048.337-.047.67-.07 1.003l-.61-.054zM62.382 204.165c.188-.298-.083-.53-.277-.776-.13-.162-.294-.32-.4-.486-.05-.075 0-.167 0-.25l.17-.038 1.004.677c.328.225.656.45 1.074.653-.26-.28-.526-.556-.787-.836.033-.006.07-.017.104-.025.545.383 1.168.743 1.205 1.245-.7-.055-1.397-.107-2.093-.165zM65.607 204.417c.682-.333 2.093-.443 2.785-.23.656.2 1.336.39 2.005.582-1.594-.116-3.192-.232-4.79-.353zM60.376 204c-.254-.303-.515-.604-.77-.907-.074-.094-.17-.18-.2-.276-.017-.056.082-.128.126-.19.127.022.31.023.375.063.454.28.916.558 1.307.856.222.168.318.373.468.565-.434-.035-.87-.074-1.306-.11zM58.72 203.863c-.11-.22-.168-.455-.34-.666-.143-.17-.125-.33.066-.536.485.45.945.874 1.407 1.298-.378-.032-.758-.062-1.134-.095zM49.546 203.037c-.15-.185-.3-.367-.45-.55 1.023.026 1.346.237.886.592-.144-.017-.29-.03-.436-.043zM65.173 204.384c0-.24-.11-.446-.453-.63-.217-.117-.223-.314-.27-.495.146.114.294.228.438.343.196.15.378.306.586.452.158.11.178.22-.04.35-.088-.01-.174-.015-.26-.02z"/><path fill="#C3782A" d="M104.53 199.205c-.7-.154-.412-.573.266-.81.26-.09.55-.17.813-.26.13-.042.24-.097.303-.17-.217.07-.426.142-.647.208-.223.067-.453.13-.724.183.23-.098.438-.204.694-.293.616-.213.623-.207.394-.45-.256.104-.524.215-.794.324-.03-.008-.058-.02-.084-.03.188-.08.397-.157.567-.243.294-.147.267-.218-.128-.278-.25-.04-.535-.053-.796-.085-1.085-.127-.99-.432-.58-.758.168-.13 1.016-.256 1.458-.208.383.042.487-.018.628-.154.273-.265.495-.556.952-.778.425-.205 1.092-.38 1.83-.376.23.002.455.04.644.086.222.05.353.054.635-.023.33-.09.76-.122 1.145-.18.037.017.075.03.114.044.067-.11.232-.235.18-.333-.06-.112-.315-.2-.478-.3-.148-.092-.412-.18-.405-.278.013-.216-.242-.338-.66-.425-.7-.146-1.398-.3-2.137-.424-.365-.063-.816-.066-1.227-.1-.408-.03-.806-.075-1.224-.088-.875-.024-1.765-.023-2.638-.054-.32-.008-.607-.08-.9-.13-.762-.13-1.516-.26-2.387-.416.446-.08.8-.144 1.157-.206-.637-.113-1.247-.012-1.833.087-.842.145-1.454.037-1.64-.294-.067-.12-.25-.225-.423-.375.323-.09.69-.24 1.11-.297.376-.047.875-.15 1.222.057.157.09.574.11.884.163l.146-.092c.77.27 1.792.06 2.75.142-.103-.04-.143-.058-.238-.098.466-.016.88-.028 1.333-.044-.026-.047-.044-.074-.06-.104.23-.034.457-.067.684-.102-.013-.017-.023-.036-.034-.056.144.01.29.016.444.025-.01-.037-.017-.065-.03-.106.12.02.217.04.356.063-.023-.056-.042-.092-.078-.17.532.104.99.196 1.487.294-.003-.033-.012-.06-.022-.124l.847.156.104-.094.352.17c.195-.098.36-.182.566-.283.02.06.023.08.046.154.17-.126.283-.207.403-.292-.002.085-.006.17-.01.254.033-.002.067-.002.1-.002.024-.047.046-.096.075-.152.185.052.34.096.54.147.018-.055.032-.097.057-.163.095.078.166.14.237.203l.067-.005c.004-.052.002-.097 0-.15.35.094.672.184 1.052.283l-.127-.204c.28.014.28.014.572.42l.107-.047.52.392c.07-.04.12-.072.176-.105.033 0 .065.002.097.005l-.047.31c.088-.03.14-.046.213-.074l.296.245.217-.078.01.218c.17-.02.326-.042.483-.065l-.363.285c.223-.045.318-.063.464-.094-.175.187-.274.317.247.41.313.053.438.226.694.373l.022-.21.624.355c.034-.01.067-.018.102-.026l-.002-.133c.214.112.365.193.513.273.077-.026.156-.055.19-.068l.28.546.27-.104-.31.328.254-.048.158.72c.093-.056.148-.092.23-.14-.02.165-.035.313-.052.46.035-.005.074-.01.113-.018.023.047.058.09.07.136.01.04 0 .082.104.134l-.3.168c.108 0 .183-.003.255 0-.082.166-.166.335-.25.52l.222-.03c-.135.144-.25.292-.417.438-.282.25-.43.503-.59.76-.135.227-.47.453-.703.678-.16.155-.298.31-.44.467-.09.102-.106.222-.527.208-.076.204-.38.35-.8.49-.247.084-.39.213-.775.216-.007-.002-.028.01-.033.014-.136.196-.677.296-.942.463-.055.037-.195.057-.276.09-.394.154-.78.313-1.17.47l-.105.042-.102-.064-1.06.635c-.03-.016-.076-.034-.08-.038-.598.138-1.172.268-1.642.374-.173.01-.288.004-.343.022-.305.103-.622.204-.885.32-.48.21-1.07.323-1.695.418.54-.153 1.082-.303 1.615-.455.298-.087.478-.396.292-.525-.375.572-1.54.832-2.783 1.07.3-.032.596-.064.893-.094-.128.02-.26.055-.392.07-.413.05-.777.126-.956.306-.035-.003-.072 0-.108 0l.026-.21c-.843.133-1.74.277-2.637.42-.014-.004-.025-.014-.04-.02.19-.055.38-.11.567-.16-.41-.016-.43-.01-.876.256.003-.16.036-.285.44-.42.323-.11.536-.28.77-.426.2-.128.356-.262.533-.39.2-.07.382-.147.594-.205.512-.14.88-.314 1.118-.536-.14.032-.256.057-.376.08l.07-.126c-.544.187-.986.335-1.425.486-.108.07-.215.142-.323.213-.1.044-.196.084-.295.126-.24.11-.47.22-.718.328-.164.07-.35.133-.526.2-.046-.01-.09-.02-.135-.027.36-.234.722-.467 1.087-.7-.583.016-.852.19-1.26.8-.504.072-1.008.14-1.514.213-.03-.004-.06-.005-.09-.006-.122-.042-.242-.084-.366-.13.42-.04.88-.08 1.345-.127-.895.062-1.5-.23-2.49-.117.296.056.54.1.84.153l-.942.362-.054-.015c.173-.094.35-.188.6-.325-.345.046-.585.075-.878.113l.345-.135c-.01-.012-.022-.02-.032-.034-.283.054-.564.106-.89.166.11-.084.207-.154.285-.213-.202-.015-.4-.03-.617-.048-.203.07-.502.167-.803.27-.026-.01-.054-.022-.08-.035l.414-.15c-.01-.012-.02-.024-.026-.034-.414.08-.83.165-1.328.264l.59-.312c-.658.068-1.366.013-1.942.306.1-.057.206-.114.308-.17.117-.063.235-.127.38-.203-.286-.028-.542-.057-.8-.083l.403-.098c0-.017.002-.032.004-.046-.23.01-.46.02-.688.034-.246.018-.52.018-.725.07-.218.054-.373.16-.555.244-.038-.008-.074-.018-.112-.03l.814-.45c-.167.05-.358.103-.555.16.1-.103.1-.103 1.126-.394-.094 0-.166.003-.237.003.08-.02.165-.053.238-.054.24-.005.49.026.71-.006.533-.08 1.084-.164 1.377-.405-.316.032-.49.173-.927.155-.367-.015-.866.147-1.302.232-.043.008-.063.05-.094.076l-.904.13c.18-.215.68-.193 1.002-.28-.338-.06-.338-.06-1.404.188.253-.104.502-.206.752-.306-.017-.013-.04-.02-.055-.033-.458.13-.915.268-1.36.396l.14-.14c-.02-.007-.038-.017-.057-.02-.143.047-.287.094-.464.15.07-.213.38-.35.83-.448.283-.013.586-.132.852-.03.04.014.22-.013.3-.04.288-.095.56-.2.876-.313l-1.806.264.68-.203c-.222-.01-.465-.018-.7-.026.106-.047.227-.096.343-.143-.032-.013-.063-.023-.092-.037l.417-.045c.145-.343-.468-.49-.832-.7-.178-.1-.373-.198-.507-.323 1.496.18 3.25-.042 4.647.217l-.047.053c-.556-.054-1.11-.11-1.7-.17-.072.356 1.146.72 2.078.627l-.534-.173c.592.012 1.158.01 1.672-.17-.035-.014-.07-.026-.09-.033 1.697-.082 3.21.09 4.806.185-.1.058-.15.088-.22.127.065-.002.113-.002.147-.007.478-.102.89-.084 1.36-.062.498.02 1.09-.06 1.634-.12.298-.032.604-.095.88-.164.636-.157.692-.37.157-.5-.17-.04-.324-.093-.487-.14.023-.014.047-.026.072-.04.51.084 1.018.17 1.526.257.022-.013.045-.025.067-.036-.22-.062-.44-.124-.658-.19-.396-.358.493-.602.986-.884-1.293.365-1.53.563-1.127.88zm-11.707 2.446l-.5.12c1.146.005 1.69-.1 2.14-.392-.547.09-1.103.185-1.655.276.25-.073.506-.15.76-.223-.012-.005-.025-.006-.035-.012-.6.097-1.202.195-1.803.29.004.008.01.016.01.024l1.083-.08zm14.513-1.66c-.15.008-.31 0-.446.025-.47.088-.934.19-1.4.286.682-.176 1.42-.32 1.904-.647-.237.04-.4.055-.52.092-.483.147-.956.303-1.42.46-.05.016-.03.064-.04.098l-.355.06-.017-.003c-.182.048-.415.085-.542.146-.804.396-1.255.876-2.434 1.24.89-.107 1.426-.238 1.91-.476.89-.438 1.88-.818 3.16-1.085.413-.084.762-.242 1.112-.376.08-.03.045-.105.063-.158l.432-.266c-.02-.003-.04-.01-.062-.012l-.744.39-.063-.016c.04-.03.077-.06.116-.087-.035-.005-.067-.01-.1-.013-.186.116-.372.23-.554.342zm-.63.476c-.785.046-1.575.286-1.94.592l.45-.136c-.5.39-1.32.61-2.194.83.302-.04.603-.08.903-.122.004.01.01.02.016.028-.317.075-.636.152-.957.23.698-.055 1.283-.208 1.734-.424.682-.32 1.31-.657 1.99-.998zm2.498-.84c.023.007.046.014.068.018-.19.106-.356.22-.574.32-.223.103-.495.19-.788.3.952-.096 1.914-.522 1.786-.853-.037-.096-.16-.2-.072-.29.204-.21-.137-.296-.333-.42.134.47-.27.913-1.23 1.328.05.01.1.02.148.032.332-.143.665-.288.996-.433zm2.163-2.378c.07-.006.14-.01.214-.017.02-.15.1-.31.043-.454-.102-.25-.542-.416-1.048-.555-.402-.11-.83-.21-1.3-.328.362.308 1.173.42 1.704.67-.234-.028-.392-.05-.553-.067.57.196.915.438.94.753zm-14.29 3.79c.008.022.015.042.023.06.708-.125 1.292-.026 1.885.022.432.036 1.173-.016 1.334-.183.265-.278.747-.42 1.4-.526-.086-.008-.156-.01-.23-.005-.566.033-.927.2-1.3.36-.403.172-.864.26-1.4.234-.276-.016-.554-.034-.836-.03-.287.01-.58.046-.876.07zm5.18-.603c-.777.063-1.302.23-1.518.535-.136.188-.3.377-.443.556.33-.11.727-.226.873-.426.183-.252.48-.488 1.086-.665zm12.333-4.293c-.013.006-.025.01-.04.018.02.306.035.614.052.9l.11-.06c.01.096.014.174.023.25.173-.127.38-.24.475-.357.104-.13.106-.265.166-.438l-.27.123-.05-.235-.194.124c-.097-.118-.184-.223-.272-.325zm-1.578 2.18c.83-.283 1.24-1.016.79-1.266-.26.387-.526.79-.778 1.166-.02.006.058-.014.22-.058-.112.078-.173.116-.232.157zm-6.378 2.917c.38-.262.732-.503 1.1-.754-1.386.15-1.712.676-2.607.992l.078.027c.517-.223 1.034-.443 1.61-.69l-.18.424zm3.284-3.27c-.05-.124-.1-.263-.17-.436l-.247.27c-.03.003-.06.006-.09.007-.03-.142-.06-.28-.082-.41-.047.022-.186.11-.21.108-.377-.048-.34.09-.33.13.034.1.126.195.245.282.193.143.63.04.885.05zm1.81 1.01c-1.273.22-1.678.58-1.608 1.02.176-.082.385-.17.423-.258.097-.222.43-.398.815-.577.127-.058.235-.117.37-.186zm-2.247.993c-1.22.303-1.718.754-2.415 1.155.403-.164.756-.34 1.112-.518.062-.03.12-.07.195-.082.654-.113.814-.33 1.11-.555zm1.564-.435l.134.03c.968-.413 1.875-.836 2.375-1.338l-2.51 1.308zm-7.407 2.638c.865-.03 2.18-.51 2.31-.787l-1.862.558c.216-.017.314-.022.5-.035l-.948.263zm10.405-6.485c.036-.14.02-.253.094-.362.164-.247.188-.457-.574-.517.088.06.178.12.27.18l-.05.016c-.187-.057-.374-.113-.56-.167-.043.01-.084.022-.124.03.824.166.505.555.944.82zm-1.91-.584c.098.092.24.18.29.277.113.218.166.44.274.656.03.062.17.107.26.163-.08-.4.172-.852-.825-1.097zm2.147-.455c-.01.26-.006.517-.036.772-.017.162.077.276.36.34-.152-.366.46-.816-.325-1.11zm-.547 1.428l-.13.02c.215.432.43.863.64 1.293.018 0 .035-.002.05 0l.165-.712c-.03 0-.06 0-.09.002-.053.033-.108.07-.157.1l-.477-.702zm1.206-1.324l-.188.017c.34.428-.354.957.496 1.356l-.31-1.372zm-3.262 3.85l.112.015c.082-.064.157-.132.25-.19.122-.08.222-.184.4-.227.438-.11.548-.253.635-.408-1.05.173-1.23.488-1.397.81zm-5.503-.383c.016.01.033.02.05.026.368-.158.736-.316 1.09-.47.007.012.02.022.045.055.252-.253.175-.422-.295-.635-.014.2.08.383-.068.547-.15.168-.54.32-.822.48zm2.074-1.322c.235.138.525.265.176.48-.047-.03-.08-.048-.11-.066-.057.028-.16.06-.16.082.01.142-.01.29.083.418.055.08.293.13.45.19l.106-.035c-.528-.132-.392-.34-.183-.554.264-.27.192-.382-.364-.515zm4.762-1.706l-.06.01c.1.273.193.546.29.82.127-.278.615-.564.18-.858l.006.305c-.172-.114-.292-.198-.416-.278zm-15.9 6.702c.005.017.012.03.02.044.566-.09 1.13-.177 1.737-.272l-.308.148c.027.008.053.02.08.026.345-.14.692-.277 1.04-.413-.03-.013-.06-.022-.09-.037-.828.17-1.657.337-2.48.504zm14.798-4.507l.206-.417c-.047.002-.094.002-.14.002-.1.27-.29.518-1.012.71-.226.06-.354.175-.528.27.033.006.07.016.102.023.44-.25 1.344-.346 1.617-.672-.116.04-.197.066-.245.084zm-15.056 4.426c.728-.182 1.604-.226 2.263-.49-.29-.01-.607-.02-.833.04-.5.132-.957.297-1.43.45zm14.906-3.888c-.055-.008-.113-.013-.17-.016-.125.11-.288.22-.364.332-.078.11-.045.225-.113.34-.065.11-.198.224-.324.36.825-.33.643-.688.97-1.017zm-2.754-1.008c-.05-.178-.35-.37-.85-.37-.417.002-.744-.073-1.15-.057-.04 0-.082.004-.028 0 .647.138 1.345.286 2.028.427zm-5.153 3.58c-.032-.013-.062-.024-.095-.034-.655.23-1.307.462-1.962.695.447-.078.813-.193 1.204-.288.41-.096.737-.202.853-.373zm8.948-2.86c.72-.23 1.058-.714.67-.877l-.67.876zm-9.173 2.794l-.053-.038c-1.51.176-1.51.176-1.734.426l.77-.23c.018.012.037.022.058.033-.14.05-.273.092-.41.138l.06.033 1.31-.36zm3.15-3.376c-.506.043-.63.11-.495.26.11.123.265.235.4.354l.128-.01c-.01-.2-.02-.396-.033-.604zm3.187 2.413c.042 0 .084.002.128 0 .134-.204.266-.408.398-.613l-.075-.003c-.048.026-.098.05-.158.08l-.074-.305-.138.014c-.026.275-.056.553-.08.827zm4.604-5.374c.23.256.47.52.71.784.045-.317.093-.635-.71-.784zm-9.662 4.88c-.026.258.288.344 1.118.327-.767-.188-.87-.345-.394-.676-.528.176-.537.345-.482.54-.075-.057-.146-.114-.242-.192zm10.91-2.47c.02-.113.08-.233.045-.34-.07-.206-.19-.404-.293-.607-.322.347.174.628.25.946zm-8.93 2.144c.068.238.23.284.893.288-.04-.102-.08-.21-.13-.343l-.255.172c-.038-.08-.06-.132-.104-.226-.062.107-.096.163-.148.255-.116-.064-.185-.105-.255-.146zm-3.404 3.29c-.714.05-1.3.178-1.8.355.69.034 1.212-.154 1.8-.354zm.35-1.89c.263-.054.46-.1.667-.137.1-.02.21-.022.316-.034-.006.045-.002.09-.02.134-.01.026-.054.054-.108.108.465-.21.518-.356.26-.504-.35.135-.708.276-1.116.434zm3.44-.92c-.572-.053-1.115-.1-1.308-.372-.176.282.437.323.59.487.248-.04.483-.08.717-.115zm-7.87 2.75l-1.57.23c.606.087.997.084 1.345-.014-.13.004-.235.01-.353.012.217-.084.406-.158.578-.227zm11.298-3.203c.508-.284-.054-.62.857-.866-.428.05-.702.148-.75.3-.056.183-.072.37-.107.566zm-2.527.183c-.075-.052-.132-.09-.19-.128-.037.007-.073.014-.112.024.14.12.278.24.418.363l.152-.017c.007-.19.012-.38.02-.57l-.148.008c-.044.098-.084.192-.14.32zm7.515-3.683c.03 0 .065-.003.095 0 .054-.248.11-.494.175-.767l-.224.094c-.032-.034-.06-.06-.114-.123l.068.797zm-5.914 3.008c.008-.026.01-.048.015-.073-.566.066-1.09-.088-1.688.146l1.672-.074zm-5.817-1.22c.16.046.31.108.498.148.604.12 1.396.144 1.676.43-.038-.217-.385-.313-.866-.37-.443-.058-.852-.138-1.307-.21zm8.1-.528l.208-.057c-.375-.18-.75-.356-1.125-.536-.034.012-.07.022-.106.032.34.19.682.375 1.023.562zm-15.463 5.082c.38-.116.77-.235 1.187-.36-.427.048-.87.027-1.258.217.15-.02.233-.027.346-.04-.107.07-.2.132-.274.183zm14.055-4.57h-.146c-.063.193-.442.398-.05.602.074-.223.133-.41.195-.6zm.183.34c.425-.127.416-.367.03-.47-.01.137-.02.312-.03.47zm2.814 1.218h.187c.116-.19.236-.385.353-.58h-.167l-.373.58zm1.773-4.087c.15-.333.056-.45-.35-.495.11.15.22.31.35.495zm-12.45 7.866l-1.223.215c.556.132.843-.12 1.223-.215zm9.466-6.11c.06-.01.123-.02.183-.028l-.273-.525c-.054.008-.105.015-.157.02.08.18.162.355.246.532zm-7.1 3.856c.407-.205.353-.32-.134-.404.028.09.056.173.08.267.065-.03.113-.056.242-.116-.078.107-.118.16-.187.252zm-1.62-3.043c.144.25.783.272 1.226.308l-1.226-.308zm-12.066 4.215l.04.044c.75-.06.75-.06.968-.227-.356.065-.684.125-1.008.182zm21.56-4.195c-.058-.015-.116-.025-.176-.037-.145.125-.29.252-.438.377.037.008.077.01.116.017.165-.12.33-.24.497-.357zm-17.082 4.276c-.06.04-.122.075-.25.158l.132-.225c-.217.148-.402.3-.134.445.09-.138.17-.257.252-.377zm17.797-5.316c.067.148.12.27.173.395.034-.136.348-.31-.173-.395zm-2.066.42c-.046.01-.09.02-.133.026.157.16.31.317.47.473l.12-.024c-.155-.157-.306-.315-.458-.474zm-19.93 4.55c.566-.18.61-.226.355-.304l-.354.304z"/><path fill="#C3782A" d="M102.948 193.5l-.43.09c.798.065 1.586.132 2.364.196-.25 0-.525.005-.795 0-1.463-.036-2.817.197-4.127.488-.21.05-.443.207-.413.29.036.094.345.16.562.25-.285.097-.706.137-1.122.123-.567-.02-.957.078-1.263.275-.062.04-.178.068-.267.104-.133.053-.387.123-.37.16.037.072.194.137.348.18.194.062.436.096.74.16-.647-.05-1.195-.165-1.706-.117-.484.046-.93.262-1.384.4-.005-.057.058-.17-.048-.235-.07-.044-.378-.02-.593-.026.042-.2-.13-.226-1.11-.11.156-.062.25-.096.397-.152-.27-.03-.515-.057-.766-.088.02-.17-.643-.324-1.39-.31-.075-.245-.332-.276-.866-.104-.102.032-.206.07-.32.092-.794.154-1.222.404-1.303.747l.015-.006c.037-.163-.062-.35.13-.476.524-.345 1.178-.667 2.235-.716.316-.014.63.064.94.104.062.007.143.045.132.063-.217.357.588.318 1 .43.035.008.085.006.13.01.378.02.575-.04.556-.193-.04-.368-.008-.732.6-1.097-.006.17-.012.33-.017.515l1.073-.792c.354-.264.584-.536.496-.825.49.04.547.123.423.525.127-.182.373-.32.892-.346.04.038.082.08.078.073.563-.034 1.07-.062 1.58-.092.01.285.488.36 1.224.266.22.055.358.123.528.127.61.017 1.235.01 1.853.016l-.01-.002zm-5.414.578c-.572.16-.913.44-.836.69.027.094.18.175.272.264.213-.056.435-.104.636-.166.108-.032.18-.082.277-.13-.892-.127-.98-.277-.35-.658zM91.478 197.285c.426-.336.907-.648 1.787-.833.91-.188 1.81-.13 2.484.137.197.077.464.13.695.195-.09.06-.357.16-.35.242.022.188.17.365.273.546.018.03.098.058.083.084-.286.47-.453.946-1.52 1.338-.316.117-.436.32-.654.49-.143-.15-.305-.33-.498-.536l-.39.235c.126-.218.483-.435.13-.666-.19.097-.344.175-.503.254.132-.47.263-.94.4-1.437-.293.006-.5.106-.692.235-.39.265-.802.524-1.23.782.278-.403.94-.836 1.723-1.152.08-.03.166-.067.23-.102.22-.124.293-.265-.01-.322-.224-.043-.664-.042-.86.02-.413.134-.73.32-1.098.487zm4.02-.25c-.99.297-1.423.79-1.056 1.114.136.12.308.118.543.01.1-.043.172-.103.26-.154-.775-.118-.752-.597.37-.794l-.118-.178z"/><path fill="#C3782A" d="M102.956 193.503c1.388-.248 2.61-.097 3.82.045.604.07 1.155.18 1.7.302-.443-.034-.89-.064-1.326-.107-.452-.048-.882-.12-1.338-.166-.455-.046-.924-.087-1.402-.102-.478-.01-.97.017-1.46.026l.006.003zM88.602 199.03c.524.118 1.073.128 1.695.005.144-.032.396.02.54.062.067.02.05.136-.025.163-.143.05-.396.11-.53.094-.6-.063-1.177-.153-1.76-.234.025-.03.053-.06.08-.09z"/><path fill="#FFF" d="M103.146 201.008c.12-.024.238-.05.376-.08-.237.222-.606.396-1.118.536-.21.058-.395.134-.595.204-.008-.015-.018-.026-.027-.038.123-.077.246-.15.39-.243-.266.074-.484.132-.707.193.108-.07.214-.142.324-.213l1.356-.36z"/><path fill="#C3782A" d="M102.55 194.645c-.154.29-.658.667-1.215 1.032-.942.62-1.648 1.268-2.154 1.94-.017.023-.046.046-.098.065.396-.555.857-1.103 1.58-1.626.69-.5 1.344-1.005 1.888-1.41z"/><path fill="#FFF" d="M87.263 198.994c.286.09.57.183.94.3-.55 0-1 0-1.49.003.04-.128.073-.245.126-.36.003-.01.158-.018.24-.027.06.028.12.058.183.084z"/><path d="M101.468 201.58c.223-.062.44-.12.708-.193-.145.092-.268.166-.39.243l-.965.458-.14.03c-.28.095-.563.186-.818.27.435-.227.872-.452 1.31-.682.1-.042.196-.082.296-.126z"/><path fill="#C3782A" d="M83.067 201.7c1.328-.605 2.655-1.208 3.984-1.808.034.01.067.024.1.035-1.332.597-2.666 1.2-3.995 1.804-.03-.01-.06-.018-.088-.03z"/><path fill="#FFF" d="M90.054 201.023c.576-.083 1.15-.17 1.806-.264-.317.113-.588.218-.875.312-.082.027-.262.054-.3.04-.267-.102-.57.018-.853.03.074-.038.147-.078.222-.12zM104.53 199.205c-.404-.316-.167-.514 1.127-.883-.494.282-1.382.525-.987.885l-.14-.002z"/><path fill="#C3782A" d="M103.51 198.897c-.53-.187.214-.703 1.027-.852-.65.247-1.26.5-1.028.852zM100.68 202.12c.047-.012.094-.023.14-.032-.288.16-.567.327-.882.482-.063.03-.275.02-.392.03l1.135-.48zM80.844 202.908l1.506-.773.1.03c-.504.254-1.008.51-1.514.77-.03-.01-.06-.018-.092-.027zM98.017 202.514c.03 0 .06.002.09.006.467-.024.976-.103 1.28.08-.26-.015-.52-.044-.79-.035-.272.004-.56.047-.854.075.067-.032.17-.08.274-.126zM89.085 195.915c.122.068.223.148.367.21.235.105.27.216.047.383-.144-.212-.272-.404-.4-.6l-.015.007z"/><path fill="#FFF" d="M67.347 196.08c-.193.015-.382.028-.71.054.74.055 1.392.056 1.934.15.944.17 1.943.313 2.663.638.085.037.2.08.32.09.847.048 1.44.27 2.028.483.557.2.593.47-.246.676-.72.18-1.335.452-2.025.664-.385.118-.825.195-1.22.286.165.02.406.06.663.075.533.034.873.213.822.446-.035.16-.262.243-.558.18-.537-.114-1.088-.234-1.523-.406-2.144-.84-4.29-1.695-6.368-2.602-1.097-.482-2.037-1.043-3.086-1.56-.68-.337-1.426-.646-2.133-.97 1.02.225 2.177.278 3.322.358l.078-.09c-.24-.065-.485-.132-.778-.21.648-.02 1.237-.01 1.73.132.85.247 1.68.507 2.54.767-.07.04-.13.07-.2.11 1.192.07 2.147.275 2.83.664l-.083.065zM68.406 193.19c-1.55.073-2.625-.348-3.875-.59-.28-.055-.572-.157-.696-.274-.09-.092-.005-.265.147-.357.138-.085.47-.113.72-.16.042-.008.108.02.158.016 1.72-.16 3.11.195 4.566.432.8.13 1.455.35 2.05.608.34.147.772.257 1.144.392.298.11.592.224.83.355.294.16.204.354.004.546-.188.183-.58.204-.92.192-.912-.024-1.828-.053-2.716-.124-1.01-.084-2.004-.197-2.98-.328-.483-.064-.94-.172-1.35-.3-.22-.064-.318-.202-.447-.293-.54.02-1.167.073-1.775.06-.33-.01-.638-.124-.944-.2-.18-.046-.352-.102-.505-.162-.164-.066-.302-.146-.453-.22.24-.054.505-.16.717-.15.488.025.974.09 1.42.174 1.077.204 2.127.437 3.347.466.517.01 1.042-.02 1.563-.03 0-.02-.004-.037-.004-.057zM65.06 191.14c.653.015 1.28.032 1.906.043.002.025.007.048.01.073l-.302.12c.333.052.62.1.91.146-.018.02-.034.04-.05.06-.522-.05-1.036-.13-1.57-.152-1.186-.05-2.38-.076-3.576-.1-.642-.018-1.3.01-1.938-.018-1.104-.047-2.112.118-3.148.32 1.167-.456 2.507-.72 3.875-.95 2.043-.342 3.975-.79 5.868-1.278 1.2-.31 2.456-.572 3.716-.824 1.088-.216 2.244-.204 3.396-.19-3.586.327-6.717 1.084-9.544 2.16.836-.068 1.67-.137 2.503-.203 1.405-.112 2.813-.265 4.222-.138.82.073 1.63.165 2.44.25.5.056.99.12 1.487.18-1.67.035-3.364.04-5.05.12-1.706.083-3.407.248-5.155.38z"/><path fill="#FFF" d="M64.52 189.648c.647-.28 1.223-.543 1.83-.788 1.432-.575 3.08-.945 4.99-1.04.26-.013.52-.042.77-.08.357-.054.36-.158.08-.23-.266-.067-.58-.134-.886-.14-2.228-.04-4.458-.016-6.67.185-1.643.15-3.08.555-4.558.905-.053.01-.1.033-.15.05l-.092-.06c.698-.23 1.393-.46 2.1-.678.425-.132.85-.276 1.318-.365 1.032-.192 2.082-.37 3.15-.512.42-.056.91.01 1.373.02.266.006.538.003.804.015.82.04 1.638.087 2.456.13.91.046 1.818.103 2.742-.003.116-.015.258-.02.365 0 1.894.276 3.784.55 5.674.823l-.04.053c-.725.01-1.45.012-2.173.03-1.484.04-2.98.046-4.446.15-1.983.142-3.925.363-5.682.875-.905.266-1.943.438-2.955.66zM85.718 197.293c-.366-.124-.808-.264-1.218-.416-.83-.313-1.64-.642-1.94-1.118-.38-.607.964-1.712 3.115-1.74.376 0 .77-.1 1.157-.145.45-.05.906-.1 1.362-.136.106-.01.28.03.316.066.03.037-.05.116-.137.146-.197.064-.43.146-.65.156-.36.02-.58.1-.748.212-.936.635-1.484 1.283-.866 1.952.228.245.497.48.736.727.05.048.053.107.077.166-.146.014-.29.025-.434.04-.242.026-.48.052-.772.087zM84.447 197.676c-.803.234-1.54.44-2.24.663-.776.248-1.58.33-2.432.267-.54-.04-1.084-.08-1.602-.148-.564-.072-.58-.273-.087-.458.663-.245 1.332-.49 1.966-.75.275-.112.47-.263.695-.394.19-.113.347-.163.618-.057.22.09.528.145.82.195.48.082 1.045.113 1.45.23.364.11.56.305.812.45zM86.522 199.322c-.386-.003-.716-.002-1.04-.013-1.125-.036-2.26.015-3.39.175-.737.105-1.154-.09-1.708-.16.136-.155.245-.31.416-.457.055-.05.266-.07.4-.113.662-.198 1.32-.397 1.985-.597.213-.062.422-.13.65-.182.673-.154.777-.14 1.187.075.35.186.695.375 1.11.53.37.134.517.29.435.506-.024.067-.027.136-.045.236zM68.63 203.016c1.636.127 3.26.25 4.878.372.365.027.422.338.07.532-.23.125-.53.233-.823.337-.243.086-.534.142-.78.227-.76.256-1.376.23-1.96.01-.48-.18-1.014-.338-1.538-.5-.285-.09-.373-.197-.24-.368.155-.203.264-.405.392-.61zM70.326 191.18c-.12.072-.178.103-.23.136-.246.156-.198.256.196.31.474.057.965.093 1.483.145-.166.048-.316.09-.584.17.417-.058.71-.11 1.007-.136.74-.067 1.367-.012 1.813.26.254.152.577.282.87.422l.135-.038c-.106-.064-.22-.126-.31-.196-.23-.176-.066-.352.215-.498.094-.047.404-.043.59-.026.093.01.198.11.17.16-.085.157.084.23.38.257.462.038.9.057 1.015.314.065.145.665.187 1.036.1.18-.044.33-.115.515-.15.15-.026.404-.047.477-.015.088.038.104.172.023.2-.265.1-.575.212-.89.243-.593.06-1.222.105-1.797.077-.634-.033-1.22-.163-1.827-.25-2.014-.298-4.026-.604-6.046-.913-.302-.046-.64-.077-.667-.25-.013-.094.053-.192.084-.298-.014.004-.126.015-.242.03l-.015-.06c.29-.02.58-.04.872-.062.36-.022.727-.06 1.083-.06.214.008.41.082.648.13z"/><path fill="#FFF" d="M83.462 197.004c-1.153-.346-2.107-.76-2.44-1.39-.053-.096-.23-.188-.416-.248-.482-.16-.646-.528-.202-.765.708-.37 1.504-.72 2.54-.928.315-.063.68-.076 1.042-.093-.358.195-.898.333-.908.63.295-.06.52-.104.772-.154-.323.225-.646.436-.93.65-.81.623-.738 1.21-.032 1.757.22.17.453.34.682.513-.037.008-.072.018-.108.028zM80.385 198.813c-.283.312-.612.6-1.294.803-.13.04-.282.09-.42.098-1.414.07-2.824.133-4.234.193-.04 0-.082-.013-.143-.02.08-.16.145-.314.244-.472.025-.04.135-.09.233-.113.46-.117.954-.208 1.39-.338.917-.275 1.83-.402 2.82-.27.444.055.923.08 1.405.12zM82.72 199.48c-.596.412-1.102.773-1.646 1.13-.057.036-.334.055-.47.04-.885-.084-1.74-.208-2.642-.273-.706-.052-1.463-.037-2.196-.055-.435-.01-.89.003-1.298-.038-.282-.03-.5-.135-.71-.236 2.968-.203 5.89-.196 8.962-.57zM65.777 204.168c-.398-.436-1.038-.803-1.256-1.3.186-.025.32-.055.447-.057 1.056-.018 2.104-.012 3.066.125.11.02.23.093.216.144-.06.22-.147.438-.263.656-.03.057-.2.14-.328.158-.613.102-1.236.18-1.883.274zM76.095 197.353c-.726-.137-1.42-.31-2.19-.398-.918-.11-1.158-.337-.897-.73.087-.127.07-.255.46-.327.167-.03.276-.144.388-.225.178-.13.322-.314.73-.272.35.037.597.163.602.347.008.57.288 1.097.907 1.606zM68.183 194.34c.302.012.522.018.738.03 1.68.104 3.36.202 5.032.31.292.018.548.096.82.145-.018.02-.033.042-.05.063-.107.005-.217.007-.33.015-.3.02-.552.045-.818.16-.785.346-1.664.38-2.512.134-.572-.17-1.15-.32-1.858-.394-.466-.05-.852-.192-1.02-.462zM69.435 195.328c-1.16.182-2.156.395-3.223.1-.513-.145-.84-.27-.877-.55-.025-.21-.192-.41-.317-.66 1.732.233 3.055.64 4.417 1.11zM86.113 190.72c-.203.34-.76.522-1.376.667-.143.034-.406.014-.564-.02-.945-.2-1.553-.553-2.214-.902 1.455-.048 2.794.08 4.153.256zM86.573 190.804c.987.132 1.997.564 2.18.97-1.173.008-2.342.057-3.416-.127-.392-.066-.405-.108-.104-.242.44-.19.866-.388 1.34-.6zM72.575 196.615c-1.57-.287-3.156-.583-4.86-.902.683-.088 1.248-.17 1.818-.228.155-.016.344.028.497.062.656.145 1.3.296 1.956.436.505.108.723.344.59.632zM74.155 203.435c1.142.176 2.57.025 3.466.41-1.112.205-2.165.304-3.13.06-.52-.134-.563-.134-.335-.47zM81.104 189.886c1.762.095 3.522.172 4.914.69-.694-.048-1.346-.095-2.002-.133-.657-.035-1.32-.062-2.037-.095.064-.244-.346-.372-.876-.462zM77.704 197.248c-.238-.303-.542-.6-.698-.918-.182-.367-.452-.702-1.082-.96-.092-.04-.163-.085-.206-.146.518.128 1.13.215 1.526.392.294.133.377.372.432.577.095.338.094.685.133 1.028l-.106.028zM65.102 195.203c-.273-.083-.538-.17-.813-.25-.31-.087-.63-.17-.948-.25-.347-.086-.39-.235-.02-.323.376-.092.818-.123 1.232-.167.07-.007.213.034.232.066.17.293.324.588.482.88-.057.016-.112.03-.166.043zM74.142 199.102c.32.16.16.32.063.474-.255.395-.314.407-1.177.287-.296-.045-.595-.09-1.045-.153.794-.225 1.473-.417 2.16-.608zM77.58 198.33c.076.044.025.146-.366.242-.74.185-1.46.385-2.185.584-.422.11-.467.105-.587-.113 1.04-.236 2.09-.476 3.138-.713zM80.405 196.865c-.808-.4-1.332-.857-1.63-1.395.257.188.474.36.723.525.177.116.288.112.61-.002.2.226.394.444.616.69l-.32.182zM74.01 193.812c.15-.04.426-.162.702-.175.365-.016.536.22.37.42-.128.154-.575.296-.864.274-.318-.027-.437-.223-.207-.518zM76.058 204.135c.56-.057 1.077-.104 1.6-.156.003.01.005.022.01.035l-1.642.61.032-.49zM76.215 194.295c.475.314.347.54-.393.76-.338-.138-.338-.138.393-.76zM75 194.797l.265-.845c.75.11.65.445-.128.853-.046-.002-.09-.01-.137-.008zM77.014 194.566c.528.246.493.386-.22.62-.104.034-.27.03-.408.043.007-.062-.035-.126.02-.18.18-.16.397-.318.608-.484z"/><path fill="#FFF" d="M80.978 199.577l-1.718.126c.633-.252.986-.275 1.718-.126zM105.06 200.362c.117-.02.236-.038.353-.06h.077c.466-.098.93-.2 1.4-.287.136-.025.296-.018.446-.026.513-.03.715-.198.975-.338-.017.054.018.128-.062.157-.35.133-.7.29-1.112.375-1.28.267-2.27.647-3.16 1.085-.484.237-1.02.368-1.91.476 1.18-.364 1.63-.844 2.435-1.24.128-.062.36-.1.543-.146l.016.002z"/><path fill="#FFF" d="M106.706 200.466c-.68.34-1.307.677-1.988 1-.45.215-1.037.368-1.734.422l.958-.23-.016-.027c-.3.043-.602.082-.903.123.873-.22 1.695-.44 2.193-.83l-.448.136c.363-.308 1.153-.548 1.938-.594zM109.204 199.627c-.332.146-.665.29-.997.434l-.147-.03c.96-.416 1.364-.858 1.23-1.33.196.125.537.21.333.42-.086.09.035.195.072.292.127.33-.834.757-1.786.853.292-.11.564-.197.787-.3.218-.1.385-.214.574-.32l-.066-.018zM111.367 197.248c-.025-.315-.37-.557-.94-.753.16.02.32.04.552.067-.532-.25-1.343-.362-1.704-.67.47.12.897.22 1.3.33.505.138.945.303 1.047.554.058.144-.023.303-.042.455-.072.008-.142.012-.213.018zM97.078 201.04c.294-.024.59-.06.876-.068.283-.005.56.014.837.028.536.025.997-.063 1.4-.233.374-.16.734-.328 1.3-.36.073-.006.143-.004.23.005-.653.106-1.135.248-1.4.526-.162.167-.903.22-1.335.183-.592-.048-1.177-.146-1.885-.02l-.022-.06z"/><path fill="#FFF" d="M102.256 200.435c-.607.178-.903.413-1.086.665-.146.2-.542.314-.873.426.143-.18.307-.367.442-.556.216-.304.74-.473 1.516-.535zM114.59 196.142c.087.103.175.207.27.325l.194-.124.05.235c.062-.028.115-.054.27-.123-.06.173-.06.307-.165.438-.097.117-.303.23-.476.356-.01-.076-.014-.154-.022-.25-.076.04-.113.06-.11.06-.02-.286-.034-.595-.052-.9.015-.008.028-.013.04-.018zM113.012 198.32c.06-.04.12-.078.233-.155l-.22.058.776-1.166c.45.25.042.982-.788 1.264zM106.634 201.24c.057-.135.11-.263.18-.425l-1.61.69c-.027-.01-.052-.02-.078-.027.896-.316 1.22-.843 2.606-.992l-1.098.753zM109.918 197.97c-.254-.01-.692.093-.885-.05-.12-.087-.21-.182-.245-.282-.01-.04-.048-.178.33-.13.024.002.163-.086.21-.11.023.132.053.27.082.413.03 0 .06-.003.09-.005l.25-.27c.067.172.117.31.168.434zM111.73 198.98c-.137.067-.245.127-.37.185-.386.18-.72.355-.816.577-.04.087-.248.176-.423.257-.07-.44.335-.8 1.61-1.02zM109.48 199.973c-.294.225-.454.442-1.107.556-.076.01-.133.052-.195.08-.356.18-.71.355-1.112.52.696-.403 1.194-.855 2.415-1.157zM111.044 199.538c.834-.437 1.673-.873 2.51-1.308-.5.502-1.408.925-2.376 1.338l-.134-.03zM103.637 202.176l.95-.264-.5.035c.694-.21 1.296-.39 1.86-.56-.13.278-1.445.758-2.31.79zM114.042 195.69c-.44-.266-.12-.654-.943-.82.038-.008.08-.02.122-.03.188.053.375.11.56.166.018-.006.035-.01.05-.017l-.27-.18c.763.06.74.27.575.518-.074.11-.06.223-.095.363zM112.13 195.106c.998.244.746.695.825 1.098-.087-.056-.228-.1-.26-.164-.107-.215-.16-.438-.274-.656-.05-.1-.19-.186-.29-.278z"/><path fill="#FFF" d="M114.28 194.65c.784.296.172.745.323 1.11-.282-.062-.376-.176-.36-.338.03-.255.026-.51.036-.77zM113.733 196.078l.478.703c.05-.03.105-.066.157-.1.03 0 .06 0 .09-.002-.054.236-.107.473-.163.71l-.05.003c-.212-.43-.426-.86-.64-1.29.043-.008.086-.016.13-.022z"/><path fill="#FFF" d="M114.94 194.754c.1.45.2.895.31 1.372-.852-.4-.157-.93-.497-1.355.06-.004.123-.01.186-.016zM111.678 198.604c.168-.32.348-.636 1.398-.81-.087.155-.198.298-.635.408-.177.043-.278.147-.4.226-.092.06-.167.127-.25.19l-.112-.014zM106.175 198.22c.283-.158.672-.31.822-.478.148-.164.054-.346.068-.547.47.213.548.382.295.636-.026-.03-.038-.042-.045-.053-.354.152-.723.31-1.09.47l-.05-.026zM104.485 202.242l-.892.093c1.243-.237 2.408-.497 2.783-1.07.186.13.006.44-.292.526-.534.153-1.075.303-1.615.456 0-.003.015-.004.015-.004zM108.25 196.898c.555.133.627.245.363.516-.21.215-.345.422.183.554l-.107.035c-.156-.062-.395-.11-.45-.19-.094-.127-.074-.276-.084-.418 0-.023.104-.054.16-.082.03.02.063.037.11.065.35-.215.06-.342-.177-.48zM113.012 195.192c.124.08.244.164.416.276l-.006-.305c.436.295-.053.58-.18.857-.096-.273-.19-.546-.29-.818l.06-.01zM105.49 200.302h-.077c.012-.032-.01-.08.04-.097.465-.157.938-.313 1.42-.46.12-.037.284-.053.52-.092-.484.327-1.222.472-1.903.65zM97.11 201.894l2.482-.504c.03.015.06.024.09.037-.348.136-.694.274-1.04.413-.027-.008-.053-.02-.08-.026l.307-.148-1.737.272c-.01-.013-.016-.028-.022-.044zM111.91 197.387c.048-.018.13-.043.245-.084-.273.326-1.177.423-1.617.672-.033-.008-.07-.018-.102-.024.173-.093.302-.21.528-.27.722-.19.912-.438 1.012-.708.046 0 .093 0 .14-.002-.07.14-.137.28-.206.417zM96.854 201.813c.473-.152.928-.317 1.43-.45.227-.06.545-.05.834-.04-.66.264-1.536.308-2.264.49zM111.76 197.925c-.328.33-.145.688-.97 1.018.125-.137.258-.25.323-.36.068-.115.035-.23.113-.34.076-.113.24-.222.363-.333.057.002.115.007.17.015zM109.006 196.917c-.683-.14-1.38-.29-2.028-.427-.053.004-.012 0 .028 0 .406-.017.733.06 1.15.058.5 0 .8.19.85.37zM103.853 200.497c-.116.17-.444.277-.853.373-.392.095-.757.21-1.204.288.655-.233 1.308-.465 1.962-.695.033.01.063.02.095.034zM112.8 197.636l.67-.876c.388.163.05.648-.67.876zM92.805 201.655c.556-.092 1.11-.186 1.66-.276-.453.29-.996.395-2.143.39.2-.046.352-.083.5-.118l-.017.003zM91.353 201.507c.03-.025.05-.068.094-.076.436-.084.935-.246 1.302-.23.437.017.61-.124.926-.156-.292.24-.844.325-1.378.405-.218.03-.468 0-.71.005-.073 0-.157.033-.236.055v-.003zM103.627 200.43l-1.31.36-.06-.033.41-.137c-.02-.01-.04-.02-.058-.032l-.77.23c.225-.25.225-.25 1.734-.427.018.014.035.028.053.04z"/><path fill="#FFF" d="M106.777 197.054l.033.603-.127.01c-.136-.117-.29-.23-.4-.353-.137-.15-.012-.217.494-.26zM109.964 199.467c.025-.273.055-.552.083-.828.044-.006.09-.01.138-.015.023.1.047.196.074.305.06-.03.11-.054.157-.08.025 0 .05.002.075.004-.132.205-.265.41-.398.613-.046.002-.088 0-.13 0zM114.568 194.093c.803.15.755.467.71.784-.238-.264-.48-.528-.71-.784zM104.906 198.972c.096.078.167.136.242.193-.054-.196-.046-.365.482-.54-.476.33-.373.487.394.675-.83.016-1.144-.07-1.118-.328zM115.817 196.502c-.076-.318-.572-.6-.25-.946.102.203.224.4.294.607.037.107-.025.227-.043.34zM106.887 198.647l.254.146c.054-.092.088-.147.15-.255.043.094.066.146.104.226l.254-.172.13.343c-.66-.003-.824-.05-.89-.288zM103.482 201.938c-.588.2-1.11.388-1.8.354.5-.177 1.086-.306 1.8-.354zM103.832 200.048c.41-.158.767-.3 1.115-.434.258.147.206.295-.26.504.055-.055.098-.082.108-.108.018-.045.014-.09.02-.134-.107.012-.216.014-.317.034-.205.036-.404.083-.666.138zM107.27 199.127c-.233.036-.47.075-.714.115-.155-.164-.768-.205-.59-.487.19.273.735.32 1.305.372zM99.402 201.878c-.17.07-.36.143-.577.228l.353-.012c-.348.098-.74.1-1.345.015.5-.076 1.028-.153 1.57-.232zM110.7 198.674c.035-.197.05-.383.108-.567.048-.15.32-.248.75-.3-.912.248-.35.583-.858.867zM108.173 198.857c.055-.127.095-.222.14-.318.05-.004.1-.006.147-.008-.008.19-.012.38-.02.57-.05.004-.103.01-.152.016l-.417-.363c.04-.01.076-.018.114-.025.057.04.114.076.19.127zM115.688 195.174c-.02-.253-.043-.508-.068-.797.055.063.082.09.114.124l.224-.093c-.064.272-.12.52-.175.766-.03-.002-.065 0-.095 0zM108.31 199.652c-.258.14-.46.307-.974.337l.552-.342c.034.003.066.008.1.014-.04.028-.077.058-.116.087l.063.016c.25-.13.497-.262.744-.39.02.002.04.008.06.01-.142.09-.284.177-.43.266zM109.774 198.182l-1.672.074c.598-.234 1.122-.08 1.687-.147-.006.024-.008.045-.016.072zM103.957 196.96c.456.072.865.152 1.307.21.48.057.828.153.867.37-.28-.286-1.072-.31-1.675-.43-.19-.04-.34-.102-.498-.15zM112.057 196.434c-.34-.187-.682-.373-1.023-.562l.106-.03c.375.18.75.354 1.125.535-.07.02-.14.04-.208.057zM92.823 201.65l-1.082.084c0-.01-.005-.017-.01-.025.6-.095 1.202-.193 1.803-.29.01.006.022.007.034.013-.253.073-.508.15-.76.223l.016-.005zM96.594 201.516l.273-.184c-.112.013-.195.02-.346.04.39-.19.832-.17 1.26-.217l-1.186.36zM110.65 196.947c-.063.19-.122.378-.194.6-.394-.202-.014-.407.05-.6h.143zM110.833 197.286c.01-.158.02-.333.03-.47.385.103.394.343-.03.47zM113.647 198.504l.373-.58h.167c-.117.195-.237.39-.353.58h-.187zM115.42 194.417c-.132-.185-.24-.344-.35-.495.406.044.502.162.35.495zM103.146 201.008l-1.355.36c.44-.152.882-.3 1.425-.487-.044.083-.056.105-.07.128zM102.97 202.283c-.38.095-.667.347-1.223.215l1.223-.215zM112.436 196.172c-.084-.177-.167-.353-.247-.532l.156-.02.272.524c-.06.01-.12.02-.182.028zM105.337 200.03c.07-.092.11-.147.188-.254-.13.06-.177.085-.24.116-.026-.094-.054-.178-.082-.267.486.085.54.2.134.404zM103.716 196.987l1.226.308c-.442-.035-1.082-.06-1.226-.308zM91.65 201.202c.324-.058.652-.117 1.008-.183-.22.167-.22.167-.97.226-.01-.015-.025-.03-.038-.044zM113.21 197.007c-.168.118-.334.236-.5.356-.038-.007-.08-.01-.115-.017.147-.125.293-.252.438-.377.06.01.12.022.176.037zM96.128 201.283l-.252.378c-.27-.145-.083-.296.134-.444-.035.058-.067.116-.133.226.13-.084.19-.12.25-.16zM113.925 195.967c.52.086.207.26.173.395-.053-.125-.106-.247-.173-.395zM111.86 196.388c.15.16.302.317.457.474-.04.01-.08.017-.12.024-.16-.155-.313-.313-.47-.473l.132-.025zM91.93 200.937l.355-.304c.256.078.21.125-.354.304zM105.06 200.362l-.017-.003.016.002zM97.534 194.078c-.63.38-.543.53.35.66-.1.046-.17.096-.278.128-.2.063-.422.11-.636.166-.093-.09-.246-.17-.272-.265-.077-.25.264-.53.836-.69zM95.497 197.034c.048.07.083.125.12.178-1.124.197-1.146.676-.37.794-.09.052-.162.11-.26.155-.236.108-.408.11-.544-.01-.368-.325.065-.818 1.054-1.116z"/></g><path fill="#5B3A15" d="M302.684 151.38c0 21.088-16 34-59.334 34l-117.083-5.7c-27.716 0-50.185-17.097-50.185-38.185 0-21.09 22.468-38.185 50.185-38.185l114.417 11.403c27.717 0 61.654 7.21 61.654 28.3l.346 8.367z"/><path fill="#A75E26" d="M284.574 111.12v-.01-1.93h-.05c-1.017-28.99-24.825-52.183-54.063-52.183l-140.575-.61c-29.442 0-53.377 23.52-54.08 52.794h-.525v2h.51c.366 29.57 24.44 53.43 54.095 53.43l50.55.222v.05h2v-.04l7.708.033v.006h1.485l38.065.167v.053h2v-.045l38.768.17c29.862 0 54.075-24.19 54.112-54.043h.002v-.062z"/><path fill="#D5AA8D" d="M139.754 164.61l90.707.113c29.862 0 54.075-24.19 54.112-54.043h.002v-.06-.01-1.93h-.05c-1.017-28.99-24.825-52.184-54.063-52.184l-90.705-.112"/><path fill="#C3782A" d="M283.086 122.116c0 29.887-24.23 54.113-54.113 54.113l-140.577-.614c-29.884 0-54.112-24.227-54.112-54.11 0-29.887 24.23-54.114 54.112-54.114l140.577.612c29.884 0 54.113 24.227 54.113 54.112z"/><path fill="#D5AA8D" d="M140.088 176.23l-51.692-.226c-29.885 0-54.113-24.23-54.113-54.113 0-29.884 24.228-54.11 54.113-54.11l51.692.224"/><path fill="none" stroke="#FFF" stroke-width="2" stroke-miterlimit="10" d="M33.792 121.187h249.294"/><ellipse fill="#FFF" cx="85.224" cy="122.337" rx="38.096" ry="36.775"/><ellipse fill="none" stroke="#C3782A" stroke-width="3" stroke-miterlimit="10" cx="85.224" cy="122.337" rx="30.507" ry="29.449"/><ellipse fill="#C3782A" cx="85.224" cy="122.337" rx="8.214" ry="7.93"/><ellipse fill="#FFF" cx="233.287" cy="122.337" rx="38.096" ry="36.775"/><ellipse fill="none" stroke="#C3782A" stroke-width="3" stroke-miterlimit="10" cx="233.286" cy="122.337" rx="30.507" ry="29.449"/><ellipse fill="#C3782A" cx="233.286" cy="122.337" rx="8.214" ry="7.93"/><path fill="none" stroke="#FFF" stroke-width="2" stroke-miterlimit="10" d="M129.517 121.34v54.323"/><g fill="none" stroke="#FFF" stroke-width="2" stroke-miterlimit="10"><path d="M139.948 161.616v14.27M149.654 161.616v14.27M159.36 161.616v14.27M169.068 161.616v14.27M178.774 161.616v14.27"/></g><path fill="none" stroke="#FFF" stroke-width="2" stroke-miterlimit="10" d="M189.205 121.78v54.324M189.494 162.052h-59.542"/><circle fill="none" stroke="#FFF" stroke-width="2" stroke-miterlimit="10" cx="146.703" cy="143.073" r="3.676"/><circle fill="none" stroke="#FFF" stroke-width="2" stroke-miterlimit="10" cx="173.65" cy="143.073" r="3.676"/><g fill="none" stroke="#FFF" stroke-width="5" stroke-miterlimit="10"><circle cx="135.312" cy="86.861" r="6.085"/><circle cx="159.651" cy="86.861" r="6.085"/><circle cx="183.989" cy="86.861" r="6.085"/></g><g fill="none" stroke="#FFF" stroke-width="2" stroke-miterlimit="10"><path d="M145.743 101.485h27.236M145.743 107.28h27.236M145.743 113.075h27.236"/></g><g><path fill="none" stroke="#FFF" stroke-width="4" stroke-miterlimit="10" d="M88.937 63.703V56.96c0-5.142 4.168-9.31 9.31-9.31H220.44c5.14 0 9.31 4.168 9.31 9.31v6.743"/><path fill="#FFF" d="M101.266 43.89H216.44v8.26H101.267z"/></g><g><path fill="none" stroke="#A75E26" stroke-width="4" stroke-miterlimit="10" d="M229.73 178.315v-26.533s1.06-10.613 10.612-10.613c9.55 0 10.61 6.897 10.61 10.612s1.593 9.02 9.022 9.02"/><path fill="#5B3A15" d="M232.916 172.3h-24.878v.018c-.12 0-.235-.018-.355-.018-10.727 0-19.572 7.967-21 18.3-.977 2.44-1.53 5.093-1.53 7.88 0 11.723 9.505 21.227 21.228 21.227 5.376 0 10.27-2.016 14.01-5.307h26.817c3.74 3.29 8.633 5.307 14.006 5.307 10.73 0 19.572-7.965 21.002-18.3.977-2.437 1.527-5.093 1.527-7.88 0-11.006-8.377-20.053-19.104-21.12v-.107h-27.482"/><g fill="none" stroke="#FFF" stroke-linecap="round" stroke-miterlimit="10"><path d="M254.508 188.315l1.13-1.127 1.126 1.127M256.764 199.858l-1.13 1.127-1.126-1.127"/></g><path fill="#A75E26" d="M259.332 168.163v-.107H202.732v.018c-.12-.002-.235-.018-.355-.018-11.723 0-21.226 9.502-21.226 21.225 0 11.726 9.504 21.228 21.227 21.228 5.375 0 10.268-2.012 14.008-5.307h26.818c3.74 3.296 8.633 5.308 14.008 5.308 11.724 0 21.226-9.502 21.226-21.227 0-11.006-8.377-20.052-19.104-21.117z"/><path fill="#D5AA8D" d="M224.943 205.2h18.26c3.74 3.295 8.633 5.307 14.008 5.307 11.724 0 21.226-9.502 21.226-21.227 0-11.006-8.377-20.053-19.104-21.117v-.107h-34.39"/><path fill="#C3782A" d="M258.03 173.114v-.105H201.427v.017c-.12-.002-.235-.018-.355-.018-11.723 0-21.226 9.5-21.226 21.224s9.503 21.227 21.226 21.227c5.375 0 10.268-2.013 14.008-5.306h26.82c3.74 3.293 8.633 5.307 14.008 5.307 11.723 0 21.225-9.503 21.225-21.226 0-11.006-8.377-20.053-19.104-21.12z"/><g fill="none" stroke="#FFF" stroke-linecap="round" stroke-miterlimit="10"><path d="M254.86 187.962l1.13-1.127 1.127 1.127M257.117 199.503l-1.13 1.127-1.126-1.127"/><g><path d="M261.438 192.52l1.126 1.127-1.126 1.127M249.896 194.774l-1.128-1.127 1.128-1.126"/></g></g><path fill="#D5AA8D" d="M225.363 172.74h-23.406v.02c-.117 0-.232-.02-.352-.02-11.723 0-21.227 9.505-21.227 21.228s9.504 21.227 21.227 21.227c5.375 0 10.268-2.014 14.006-5.307h9.753"/><g fill="#FFF"><path d="M192.406 193.35h15.92v3.538h-15.92z"/><path d="M198.598 187.16h3.537v15.917h-3.537z"/></g><circle fill="none" stroke="#FFF" stroke-miterlimit="10" cx="200.365" cy="195.118" r="12.027"/><circle fill="none" stroke="#FFF" stroke-miterlimit="10" cx="255.611" cy="193.972" r="15.389"/><g><circle fill="#FFF" cx="255.481" cy="194.073" r="3.829"/><circle fill="#FFF" cx="255.636" cy="187.753" r="4.757"/><circle fill="#C3782A" cx="255.635" cy="187.753" r="3.072"/><circle fill="#FFF" cx="249.466" cy="194.046" r="4.757"/><circle fill="#C3782A" cx="249.467" cy="194.046" r="3.072"/><g><circle fill="#FFF" cx="255.636" cy="200.19" r="4.757"/><circle fill="#C3782A" cx="255.635" cy="200.19" r="3.072"/></g><g><circle fill="#FFF" cx="261.756" cy="194.046" r="4.758"/><circle fill="#C3782A" cx="261.756" cy="194.046" r="3.072"/></g></g><path fill="#FFF" d="M219.35 187.78h4.775v8.89h-4.775zM228.635 187.78h4.777v8.89h-4.777z"/></g><g><linearGradient id="a" gradientUnits="userSpaceOnUse" x1="11.804" y1="61.704" x2="35.073" y2="61.704"><stop offset="0" stop-color="#FFF"/><stop offset="1"/></linearGradient><path fill="url(#a)" stroke="#FFF" stroke-width="4" stroke-linecap="round" stroke-miterlimit="10" d="M11.804 54.025l23.27 15.357"/><linearGradient id="b" gradientUnits="userSpaceOnUse" x1="688.928" y1="-493.253" x2="702.756" y2="-493.253" gradientTransform="rotate(8.996 -3014.683 -4346.767)"><stop offset="0" stop-color="#FFF"/><stop offset="1"/></linearGradient><path fill="url(#b)" stroke="#FFF" stroke-width="4" stroke-linecap="round" stroke-miterlimit="10" d="M42.193 27.01l9.87 26.07"/><linearGradient id="c" gradientUnits="userSpaceOnUse" x1="-609.015" y1="459.832" x2="-581.206" y2="459.832" gradientTransform="rotate(-7.607 -3050.124 -4294.96)"><stop offset="0" stop-color="#FFF"/><stop offset="1"/></linearGradient><path fill="url(#c)" stroke="#FFF" stroke-width="4" stroke-linecap="round" stroke-miterlimit="10" d="M-1.092 93.814l27.824-1.738"/></g><g><linearGradient id="d" gradientUnits="userSpaceOnUse" x1="-5757.534" y1="62.44" x2="-5734.265" y2="62.44" gradientTransform="matrix(-1 0 0 1 -5449.34 0)"><stop offset="0" stop-color="#FFF"/><stop offset="1"/></linearGradient><path fill="url(#d)" stroke="#FFF" stroke-width="4" stroke-linecap="round" stroke-miterlimit="10" d="M308.195 54.762l-23.27 15.356"/><linearGradient id="e" gradientUnits="userSpaceOnUse" x1="-5009.085" y1="410.335" x2="-4995.258" y2="410.335" gradientTransform="rotate(170.996 -2382.41 22.883)"><stop offset="0" stop-color="#FFF"/><stop offset="1"/></linearGradient><path fill="url(#e)" stroke="#FFF" stroke-width="4" stroke-linecap="round" stroke-miterlimit="10" d="M277.807 27.744l-9.87 26.073"/><linearGradient id="f" gradientUnits="userSpaceOnUse" x1="-6327.64" y1="-303.292" x2="-6299.83" y2="-303.292" gradientTransform="rotate(-172.392 -3010.247 -21.633)"><stop offset="0" stop-color="#FFF"/><stop offset="1"/></linearGradient><path fill="url(#f)" stroke="#FFF" stroke-width="4" stroke-linecap="round" stroke-miterlimit="10" d="M321.092 94.552l-27.824-1.74"/></g></svg>