<svg xmlns="http://www.w3.org/2000/svg" xmlns:xlink="http://www.w3.org/1999/xlink" width="320" height="250" viewBox="0 0 320 250"><ellipse fill="#141035" cx="31.669" cy="236.646" rx="17.024" ry="4.787"/><ellipse fill="#141035" cx="255.499" cy="235.9" rx="37.624" ry="10.582"/><ellipse fill="#141035" cx="119.798" cy="234.98" rx="18.791" ry="5.285"/><ellipse fill="#141035" cx="254.784" cy="117.651" rx="42.406" ry="11.417"/><circle fill="#482F91" cx="231.429" cy="74.7" r="33.307"/><path fill="none" stroke="#482F91" stroke-width="2.5" stroke-miterlimit="10" d="M222.064 26.14v-1.714c0-4.89 3.965-8.854 8.853-8.854h3.444c4.89 0 8.854 3.963 8.854 8.854v1.713"/><path fill="none" stroke="#FFF" stroke-width="2" stroke-miterlimit="10" d="M221.88 26.14v-1.714c0-4.89 3.966-8.854 8.855-8.854"/><path fill="#FFF" d="M213.092 102.507c-9.02-5.96-14.97-16.188-14.97-27.807 0-11.496 5.825-21.633 14.685-27.618"/><path fill="#482F91" d="M209.063 51.118s1.965-19.853 7.294-23.34c6.562-4.29 24.798-4.29 31.36 0 5.33 3.487 7.293 23.34 7.293 23.34"/><path fill="#312B72" d="M244.425 234.38c0 1.726-1.397 3.12-3.118 3.12H221.06c-1.72 0-3.117-1.395-3.117-3.12V117.887c0-1.722 1.396-3.118 3.118-3.118h20.247c1.72 0 3.118 1.396 3.118 3.118V234.382zM205.172 86.044h7.943v30.146h-7.943zM249.985 86.044h7.943v30.146h-7.943z"/><path fill="#482F91" d="M213.682 185.963h-9.643l-1.703-51.567v-17.64h11.345v17.613"/><path fill="#FFF" d="M208.197 185.95h-4.173l-1.703-51.57V116.74h5.877"/><path fill="#482F91" d="M257.93 185.963h-9.645v-69.207h11.346v17.587"/><path fill="#312B72" d="M219.923 45v-6.112c0-3.956 3.206-7.165 7.164-7.165h8.36c3.956 0 7.164 3.208 7.164 7.165v6.11M255.577 92.026h17.302v3.226h-17.303z"/><path fill="#312B72" d="M285.766 95.274c0 2.687-2.177 4.867-4.864 4.867h-8.99c-2.688 0-4.866-2.18-4.866-4.866v-2.297c0-2.688 2.18-4.865 4.865-4.865h8.992c2.688 0 4.864 2.177 4.864 4.865v2.297zM187.802 92.026h17.302v3.226h-17.302z"/><path fill="#312B72" d="M194.81 94.92c0 2.687-2.178 4.866-4.862 4.866h-8.99c-2.688 0-4.867-2.18-4.867-4.866v-2.298c0-2.688 2.18-4.866 4.868-4.866h8.99c2.685 0 4.863 2.177 4.863 4.866v2.298z"/><path fill="#FFF" d="M186.785 99.786h-6.072c-2.687 0-4.866-2.18-4.866-4.866v-2.298c0-2.688 2.18-4.866 4.866-4.866h6.072"/><path fill="#482F91" d="M249.562 51.168c15.104-4.823 13.26-6.596 28.646-6.596h35.313v6.808s-35.206.106-41.8.106c-5.204 0-19.782 6.488-19.782 6.488"/><path fill="#482F91" d="M285.016 42.447h10.422v10.635h-10.422z"/><path fill="none" stroke="#1E3419" stroke-width="1.5" stroke-miterlimit="10" d="M287.87 43.51V30.106l7.447-7.444"/><circle fill="#482F91" cx="301.06" cy="15.643" r="12.125"/><path fill="#482F91" d="M212.264 50.317c-15.102-4.82-13.26-6.595-28.645-6.595h-35.314v6.808s35.205.106 41.8.106c5.204 0 19.783 6.488 19.783 6.488"/><path fill="#FFF" d="M183.62 43.722h-35.314v6.808s22.912.07 35.23.096"/><path fill="#482F91" d="M166.386 41.596h10.425v10.636h-10.424z"/><path fill="none" stroke="#1E3419" stroke-width="1.5" stroke-miterlimit="10" d="M173.954 44.118v-13.4l-7.445-7.447"/><circle fill="#482F91" cx="160.765" cy="16.251" r="12.125"/><defs><path id="a" d="M289.27 167.846v-34.78l9.36 10.848v13.262z"/></defs><path fill="#312B72" d="M261.19 133.066h2.553v34.887h-2.553z"/><g fill="#312B72"><path d="M265.8 133.066h2.554v34.887H265.8zM270.395 133.066h2.554v34.887h-2.555zM274.987 133.066h2.556v34.887h-2.556zM279.583 133.066h2.554v34.887h-2.554zM284.18 133.066h2.554v34.887h-2.555z"/></g><defs><path id="b" d="M289.27 167.846v-34.78l9.36 10.848v13.262z"/></defs><use xlink:href="#b" overflow="visible" fill="#312B72"/><clipPath id="c"><use xlink:href="#b" overflow="visible"/></clipPath><g clip-path="url(#c)" fill="#312B72"><path d="M289.45 133.21h9.123v2.552h-9.122zM289.45 138.56h9.123v2.554h-9.122zM289.45 143.914h9.123v2.553h-9.122zM289.45 149.27h9.123v2.55h-9.122zM289.45 154.623h9.123v2.553h-9.122zM289.45 159.977h9.123v2.553h-9.122zM289.45 165.33h9.123v2.553h-9.122z"/></g><defs><path id="d" d="M289.27 167.846v-34.78l9.36 10.848v13.262z"/></defs><path fill="#312B72" d="M198.55 132.215h2.552v34.89h-2.552zM193.94 132.215h2.553v34.89h-2.553zM189.346 132.215h2.553v34.89h-2.554z"/><path fill="#FFF" d="M184.752 132.215h2.55v34.89h-2.55zM180.156 132.215h2.552v34.89h-2.552zM175.562 132.215h2.552v34.89h-2.552z"/><defs><path id="e" d="M173.023 166.996v-34.78l-9.36 10.848v13.26z"/></defs><defs><path id="f" d="M173.023 166.996v-34.78l-9.36 10.848v13.26z"/></defs><use xlink:href="#f" overflow="visible" fill="#FFF"/><clipPath id="g"><use xlink:href="#f" overflow="visible"/></clipPath><g clip-path="url(#g)" fill="#FFF"><path d="M163.72 132.357h9.124v2.55h-9.125zM163.72 137.71h9.124v2.554h-9.125zM163.72 143.064h9.124v2.553h-9.125zM163.72 148.418h9.124v2.55h-9.125zM163.72 153.77h9.124v2.554h-9.125zM163.72 159.125h9.124v2.553h-9.125zM163.72 164.48h9.124v2.552h-9.125z"/></g><defs><path id="h" d="M173.023 166.996v-34.78l-9.36 10.848v13.26z"/></defs><path fill="#482F91" d="M157.605 174.053h60.614v7.94h-60.615zM43.438 170.58h17.14v12.143H43.44z"/><circle fill="#FFF" cx="231.268" cy="62.301" r="21.131"/><circle fill="#312B72" cx="231.268" cy="62.301" r="17.727"/><path fill="#FFF" d="M251.824 132.393v-18.94c0-10.706-8.06-19.39-18-19.39h-6c-9.942 0-18 8.684-18 19.39v18.94h42z"/><g><circle fill="#FFF" cx="231.551" cy="62.18" r="15.054"/><circle fill="#312B72" cx="231.552" cy="62.18" r="2.734"/></g><path fill="#312B72" d="M37.95 234.826c0 1.477-1.2 2.674-2.677 2.674H17.92c-1.476 0-2.674-1.197-2.674-2.674V126.223c0-1.476 1.198-2.672 2.674-2.672h17.353c1.477 0 2.676 1.196 2.676 2.672V234.827z"/><path fill="#482F91" d="M45.258 209.857v-79.164c0-9.18-7.44-16.62-16.62-16.62h-5.54c-9.178 0-16.62 7.44-16.62 16.62v79.164h38.78z"/><path fill="#FFF" d="M16.913 115.263c-6.116 2.456-10.433 8.44-10.433 15.43v79.165h10.285"/><path fill="none" stroke="#482F91" stroke-width="2.5" stroke-miterlimit="10" d="M86.226 150.855v-48.85c0-10.792 8.747-19.54 19.538-19.54h7.602c10.79 0 19.538 8.75 19.538 19.54v48.85"/><path fill="#482F91" d="M158.308 170.354c0 30.277-22.07 41.004-49.295 41.004S59.72 200.63 59.72 170.354s22.07-54.823 49.293-54.823 49.295 24.546 49.295 54.824z"/><path fill="#FFF" d="M93.077 210.023c-19.658-3.686-33.847-15.393-33.847-39.67 0-24.316 14.237-44.935 33.943-52.112"/><path fill="#FFF" d="M133.89 168.97s-6.68 4.608-24.646 4.608c-21.192 0-25.108-4.607-25.108-4.607V127.51s9.674-8.29 24.646-8.29c17.046 0 25.108 8.29 25.108 8.29v41.463z"/><path fill="#482F91" d="M132.97 167.752s-6.352 4.29-23.43 4.29c-20.147 0-23.87-4.29-23.87-4.29v-39.58s9.197-7.727 23.43-7.727c16.206 0 23.87 7.727 23.87 7.727v39.58z"/><path fill="#FFF" d="M93.01 122.774c4.016-1.773 9.516-3.423 16.09-3.423 16.205 0 23.868 7.728 23.868 7.728v39.578s-6.35 4.293-23.43 4.293c-7.556 0-12.8-.605-16.406-1.358"/><path fill="#141035" d="M85.67 168.592V157.79s7.604-2.134 22.958-2.134c19.348 0 24.34 2.133 24.34 2.133v10.802s-7.6 3.766-24.492 3.766c-16.587 0-22.805-3.766-22.805-3.766z"/></svg>